<?xml version="1.0" encoding="UTF-8"?>
<!DOCTYPE svg PUBLIC "-//W3C//DTD SVG 1.1//EN"
    "http://www.w3.org/Graphics/SVG/1.1/DTD/svg11.dtd"><svg xmlns="http://www.w3.org/2000/svg" width="555" xmlns:xlink="http://www.w3.org/1999/xlink" height="121" version="1.11.1"><rect fill="darkgrey" stroke="none" x="0" class="textbox" width="192" y="0" transform="translate(22 0)translate(23 23)" height="44"/><text fill="white" dominant-baseline="central" x="96" y="22" transform="translate(22 0)translate(23 23)" text-anchor="middle">Person walks</text><rect fill="darkgrey" stroke="none" x="0" class="textbox" width="186" y="0" transform="translate(6 0)translate(0 10)translate(22 -10)translate(202 0)translate(22 0)translate(23 23)" height="44"/><text fill="white" dominant-baseline="central" x="93" y="22" transform="translate(6 0)translate(0 10)translate(22 -10)translate(202 0)translate(22 0)translate(23 23)" text-anchor="middle">Person eats</text><path fill="none" stroke="darkgrey" class="v_connector_in" d="M -22,32 C 0,32 -22,32 6 32" transform="translate(22 -10)translate(202 0)translate(22 0)translate(23 23)"/><path fill="none" stroke="darkgrey" class="v_connector_out" d="M 220,32 C 198,32 220,32 192 32" transform="translate(22 -10)translate(202 0)translate(22 0)translate(23 23)"/><rect fill="darkgrey" stroke="none" x="0" class="textbox" width="198" y="0" transform="translate(0 0)translate(0 64)translate(22 -10)translate(202 0)translate(22 0)translate(23 23)" height="44"/><text fill="white" dominant-baseline="central" x="99" y="22" transform="translate(0 0)translate(0 64)translate(22 -10)translate(202 0)translate(22 0)translate(23 23)" text-anchor="middle">Person drinks</text><path fill="none" stroke="darkgrey" class="v_connector_in" d="M -22,32 C 0,32 -22,86 0 86" transform="translate(22 -10)translate(202 0)translate(22 0)translate(23 23)"/><path fill="none" stroke="darkgrey" class="v_connector_out" d="M 220,32 C 198,32 220,86 198 86" transform="translate(22 -10)translate(202 0)translate(22 0)translate(23 23)"/><path fill="none" stroke="darkgrey" class="h_connector" d="M 192,22 c 5,0 5,0 10 0" transform="translate(22 0)translate(23 23)"/></svg>