<?xml version="1.0" encoding="UTF-8" standalone="no"?>
<!DOCTYPE svg PUBLIC "-//W3C//DTD SVG 1.1//EN"
 "http://www.w3.org/Graphics/SVG/1.1/DTD/svg11.dtd">
<!-- Generated by graphviz version 2.43.0 (0)
 -->
<!-- Title: %3 Pages: 1 -->
<svg width="262pt" height="436pt"
 viewBox="0.00 0.00 262.29 436.00" xmlns="http://www.w3.org/2000/svg" xmlns:xlink="http://www.w3.org/1999/xlink">
<g id="graph0" class="graph" transform="scale(1 1) rotate(0) translate(4 432)">
<title>%3</title>
<polygon fill="white" stroke="transparent" points="-4,4 -4,-432 258.29,-432 258.29,4 -4,4"/>
<!-- 2 -->
<!-- IsParty -->
<g id="node1" class="node">
<title>2</title>
<polygon fill="none" stroke="black" points="126,-428 23.1,-410 126,-392 228.89,-410 126,-428"/>
<text text-anchor="middle" x="126" y="-406.3" font-family="Times,serif" font-size="14.00">Every Person</text>
</g>
<!-- 3 -->
<g id="node3" class="node">
<title>3</title>
<polygon fill="black" stroke="black" points="172,-356 80,-356 80,-273 172,-273 172,-356"/>
<text text-anchor="middle" x="126" y="-340.8" font-family="Monaco" font-size="14.00" fill="white">who all of:&#45;</text>
<text text-anchor="middle" x="126" y="-325.8" font-family="Monaco" font-size="14.00" fill="white">walks</text>
<text text-anchor="middle" x="126" y="-310.8" font-family="Monaco" font-size="14.00" fill="white">any of:&#45;</text>
<text text-anchor="middle" x="126" y="-295.8" font-family="Monaco" font-size="14.00" fill="white">eats</text>
<text text-anchor="middle" x="126" y="-280.8" font-family="Monaco" font-size="14.00" fill="white">drinks</text>
</g>
<!-- 2&#45;&gt;3 -->
<g id="edge2" class="edge">
<title>2&#45;&gt;3</title>
<path fill="none" stroke="black" d="M126,-391.85C126,-384.49 126,-375.48 126,-366.25"/>
<polygon fill="black" stroke="black" points="129.5,-366.23 126,-356.23 122.5,-366.23 129.5,-366.23"/>
</g>
<!-- 4 -->
<!-- IsDeon -->
<g id="node2" class="node">
<title>4</title>
<polygon fill="none" stroke="black" points="126,-237 35,-184 126,-131 217,-184 126,-237"/>
<text text-anchor="middle" x="126" y="-195.3" font-family="Times,serif" font-size="14.00">must</text>
<text text-anchor="middle" x="126" y="-180.3" font-family="Times,serif" font-size="14.00">sing</text>
<text text-anchor="middle" x="126" y="-165.3" font-family="Times,serif" font-size="14.00">eventually</text>
</g>
<!-- 5 -->
<!-- IsLastHappy -->
<g id="node4" class="node">
<title>5</title>
<polygon fill="black" stroke="black" points="202,-95 148,-95 148,-72 202,-72 202,-95"/>
<text text-anchor="middle" x="175" y="-79.8" font-family="Monaco" font-size="14.00" fill="white">done</text>
</g>
<!-- 4&#45;&gt;5 -->
<!-- southeast for positive -->
<g id="edge4" class="edge">
<title>4:se&#45;&gt;5</title>
<path fill="none" stroke="green" d="M160,-149C171.29,-137.71 174.74,-119.69 175.54,-105.56"/>
<polygon fill="green" stroke="green" points="179.04,-105.32 175.71,-95.27 172.04,-105.21 179.04,-105.32"/>
</g>
<!-- 6 -->
<g id="node5" class="node">
<title>6</title>
<polygon fill="black" stroke="black" points="117,-95 39,-95 39,-72 117,-72 117,-95"/>
<text text-anchor="middle" x="78" y="-79.8" font-family="Monaco" font-size="14.00" fill="white">not done</text>
</g>
<!-- 4&#45;&gt;6 -->
<!-- southwest for negative -->
<g id="edge5" class="edge">
<title>4:sw&#45;&gt;6</title>
<path fill="none" stroke="black" d="M92,-149C80.74,-137.75 77.58,-119.72 77.04,-105.58"/>
<polygon fill="black" stroke="black" points="80.54,-105.29 77.06,-95.28 73.54,-105.27 80.54,-105.29"/>
</g>
<!-- 3&#45;&gt;4 -->
<g id="edge3" class="edge">
<title>3&#45;&gt;4</title>
<path fill="none" stroke="black" d="M126,-272.84C126,-264.7 126,-255.98 126,-247.3"/>
<polygon fill="black" stroke="black" points="129.5,-247.17 126,-237.17 122.5,-247.17 129.5,-247.17"/>
</g>
<!-- 1 -->
<!-- IsInfra -->
<g id="node7" class="node">
<title>1</title>
<ellipse fill="none" stroke="green" cx="188" cy="-18" rx="66.09" ry="18"/>
<text text-anchor="middle" x="188" y="-14.3" font-family="Times,serif" font-size="14.00">FULFILLED</text>
</g>
<!-- 5&#45;&gt;1 -->
<g id="edge6" class="edge">
<title>5&#45;&gt;1</title>
<path fill="none" stroke="green" d="M177.2,-71.73C178.65,-64.63 180.62,-55.01 182.48,-45.92"/>
<polygon fill="green" stroke="green" points="185.93,-46.55 184.5,-36.06 179.07,-45.15 185.93,-46.55"/>
</g>
<!-- 0 -->
<!-- IsInfra -->
<g id="node6" class="node">
<title>0</title>
<ellipse fill="none" stroke="brown" cx="52" cy="-18" rx="51.99" ry="18"/>
<text text-anchor="middle" x="52" y="-14.3" font-family="Times,serif" font-size="14.00">BREACH</text>
</g>
<!-- 6&#45;&gt;0 -->
<g id="edge7" class="edge">
<title>6&#45;&gt;0</title>
<path fill="none" stroke="brown" d="M73.58,-71.73C70.62,-64.48 66.57,-54.59 62.78,-45.34"/>
<polygon fill="brown" stroke="brown" points="66.01,-43.98 58.98,-36.06 59.53,-46.64 66.01,-43.98"/>
</g>
<!-- 0&#45;&gt;1 -->
<!-- this will render as invisible, but will be on same rank -->
</g>
</svg>
