<?xml version="1.0" encoding="UTF-8" standalone="no"?>
<!DOCTYPE svg PUBLIC "-//W3C//DTD SVG 1.1//EN"
 "http://www.w3.org/Graphics/SVG/1.1/DTD/svg11.dtd">
<!-- Generated by graphviz version 2.43.0 (0)
 -->
<!-- Title: %3 Pages: 1 -->
<svg width="1020pt" height="653pt"
 viewBox="0.00 0.00 1020.00 653.48" xmlns="http://www.w3.org/2000/svg" xmlns:xlink="http://www.w3.org/1999/xlink">
<g id="graph0" class="graph" transform="scale(1 1) rotate(0) translate(4 649.48)">
<title>%3</title>
<polygon fill="white" stroke="transparent" points="-4,4 -4,-649.48 1016,-649.48 1016,4 -4,4"/>
<g id="clust1" class="cluster">
<title>cluster_natural4</title>
<polygon fill="lightgrey" stroke="lightgrey" points="8,-307.74 8,-461.74 134,-461.74 134,-307.74 8,-307.74"/>
</g>
<g id="clust2" class="cluster">
<title>cluster_vue</title>
<polygon fill="lightgrey" stroke="lightgrey" points="160,-8 160,-359.74 398,-359.74 398,-8 160,-8"/>
</g>
<g id="clust3" class="cluster">
<title>cluster_new</title>
<polygon fill="lightgrey" stroke="lightgrey" points="506,-220.74 506,-461.74 904,-461.74 904,-220.74 506,-220.74"/>
</g>
<!-- legalSS spreadsheet onEdit() -->
<g id="node1" class="node">
<title>legalSS spreadsheet onEdit()</title>
<ellipse fill="none" stroke="black" cx="795" cy="-618.61" rx="112.38" ry="18"/>
<text text-anchor="middle" x="795" y="-614.91" font-family="Times,serif" font-size="14.00">legalSS spreadsheet onEdit()</text>
</g>
<!-- Code.gs -->
<g id="node2" class="node">
<title>Code.gs</title>
<ellipse fill="none" stroke="black" cx="795" cy="-522.74" rx="39.79" ry="18"/>
<text text-anchor="middle" x="795" y="-519.04" font-family="Times,serif" font-size="14.00">Code.gs</text>
</g>
<!-- legalSS spreadsheet onEdit()&#45;&gt;Code.gs -->
<g id="edge1" class="edge">
<title>legalSS spreadsheet onEdit()&#45;&gt;Code.gs</title>
<path fill="none" stroke="black" d="M795,-600.39C795,-586.63 795,-567.08 795,-551.17"/>
<polygon fill="black" stroke="black" points="798.5,-550.85 795,-540.85 791.5,-550.85 798.5,-550.85"/>
<text text-anchor="middle" x="824.5" y="-562.54" font-family="Times,serif" font-size="14.00">parse CSV</text>
</g>
<!-- gsheet/pyrest/hello.py -->
<g id="node3" class="node">
<title>gsheet/pyrest/hello.py</title>
<ellipse fill="none" stroke="black" cx="410" cy="-435.74" rx="88.28" ry="18"/>
<text text-anchor="middle" x="410" y="-432.04" font-family="Times,serif" font-size="14.00">gsheet/pyrest/hello.py</text>
</g>
<!-- Code.gs&#45;&gt;gsheet/pyrest/hello.py -->
<g id="edge2" class="edge">
<title>Code.gs&#45;&gt;gsheet/pyrest/hello.py</title>
<path fill="none" stroke="black" d="M758.75,-515.08C703.24,-504.72 593.93,-483.62 502,-461.74 491.4,-459.22 480.16,-456.34 469.32,-453.45"/>
<polygon fill="black" stroke="black" points="470.07,-450.03 459.51,-450.81 468.26,-456.79 470.07,-450.03"/>
<text text-anchor="middle" x="650.5" y="-475.54" font-family="Times,serif" font-size="14.00">ships CSV to</text>
</g>
<!-- main.html -->
<g id="node4" class="node">
<title>main.html</title>
<ellipse fill="none" stroke="black" cx="960" cy="-435.74" rx="48.19" ry="18"/>
<text text-anchor="middle" x="960" y="-432.04" font-family="Times,serif" font-size="14.00">main.html</text>
</g>
<!-- Code.gs&#45;&gt;main.html -->
<g id="edge3" class="edge">
<title>Code.gs&#45;&gt;main.html</title>
<path fill="none" stroke="black" d="M820.42,-508.65C848.03,-494.42 892.36,-471.58 923.65,-455.47"/>
<polygon fill="black" stroke="black" points="925.62,-458.39 932.9,-450.7 922.41,-452.17 925.62,-458.39"/>
<text text-anchor="middle" x="949.5" y="-475.54" font-family="Times,serif" font-size="14.00">produce HTML output</text>
</g>
<!-- static files -->
<g id="node7" class="node">
<title>static files</title>
<ellipse fill="lightblue" stroke="lightblue" cx="79" cy="-333.74" rx="46.59" ry="18"/>
<text text-anchor="middle" x="79" y="-330.04" font-family="Times,serif" font-size="14.00">static files</text>
</g>
<!-- gsheet/pyrest/hello.py&#45;&gt;static files -->
<g id="edge6" class="edge">
<title>gsheet/pyrest/hello.py&#45;&gt;static files</title>
<path fill="none" stroke="black" d="M360.71,-420.61C309.45,-405.82 226.93,-381.72 156,-359.74 145.31,-356.43 133.82,-352.76 123.06,-349.27"/>
<polygon fill="black" stroke="black" points="124.03,-345.9 113.43,-346.14 121.86,-352.56 124.03,-345.9"/>
<text text-anchor="middle" x="305" y="-381.04" font-family="Times,serif" font-size="14.00">serves</text>
</g>
<!-- natural4&#45;exe -->
<g id="node8" class="node">
<title>natural4&#45;exe</title>
<ellipse fill="lightblue" stroke="lightblue" cx="71" cy="-435.74" rx="54.69" ry="18"/>
<text text-anchor="middle" x="71" y="-432.04" font-family="Times,serif" font-size="14.00">natural4&#45;exe</text>
</g>
<!-- gsheet/pyrest/hello.py&#45;&gt;natural4&#45;exe -->
<g id="edge9" class="edge">
<title>gsheet/pyrest/hello.py&#45;&gt;natural4&#45;exe</title>
<path fill="none" stroke="black" d="M371.49,-452.1C319.18,-472.05 223.05,-500.56 143.5,-478.74 128.4,-474.6 113.25,-466.4 100.74,-458.27"/>
<polygon fill="black" stroke="black" points="102.37,-455.14 92.13,-452.42 98.43,-460.93 102.37,-455.14"/>
<text text-anchor="middle" x="156" y="-475.54" font-family="Times,serif" font-size="14.00">calls</text>
</g>
<!-- v8k script -->
<g id="node10" class="node">
<title>v8k script</title>
<ellipse fill="lightgreen" stroke="lightgreen" cx="344" cy="-333.74" rx="46.29" ry="18"/>
<text text-anchor="middle" x="344" y="-330.04" font-family="Times,serif" font-size="14.00">v8k script</text>
</g>
<!-- gsheet/pyrest/hello.py&#45;&gt;v8k script -->
<g id="edge17" class="edge">
<title>gsheet/pyrest/hello.py&#45;&gt;v8k script</title>
<path fill="none" stroke="black" d="M398.8,-417.78C388.31,-401.88 372.49,-377.91 360.55,-359.81"/>
<polygon fill="black" stroke="black" points="363.46,-357.87 355.03,-351.45 357.62,-361.73 363.46,-357.87"/>
<text text-anchor="middle" x="399.5" y="-381.04" font-family="Times,serif" font-size="14.00">calls</text>
</g>
<!-- rules -->
<g id="node15" class="node">
<title>rules</title>
<ellipse fill="pink" stroke="pink" cx="542" cy="-333.74" rx="27.9" ry="18"/>
<text text-anchor="middle" x="542" y="-330.04" font-family="Times,serif" font-size="14.00">rules</text>
</g>
<!-- gsheet/pyrest/hello.py&#45;&gt;rules -->
<g id="edge23" class="edge">
<title>gsheet/pyrest/hello.py&#45;&gt;rules</title>
<path fill="none" stroke="black" d="M431.8,-418.23C454.99,-400.66 491.65,-372.89 516.24,-354.25"/>
<polygon fill="black" stroke="black" points="518.54,-356.9 524.4,-348.07 514.31,-351.32 518.54,-356.9"/>
<text text-anchor="middle" x="516.5" y="-388.54" font-family="Times,serif" font-size="14.00">1</text>
<text text-anchor="middle" x="516.5" y="-373.54" font-family="Times,serif" font-size="14.00">convert</text>
</g>
<!-- shadow&#45;cljs watch app -->
<g id="node17" class="node">
<title>shadow&#45;cljs watch app</title>
<ellipse fill="pink" stroke="pink" cx="679" cy="-333.74" rx="90.98" ry="18"/>
<text text-anchor="middle" x="679" y="-330.04" font-family="Times,serif" font-size="14.00">shadow&#45;cljs watch app</text>
</g>
<!-- gsheet/pyrest/hello.py&#45;&gt;shadow&#45;cljs watch app -->
<g id="edge24" class="edge">
<title>gsheet/pyrest/hello.py&#45;&gt;shadow&#45;cljs watch app</title>
<path fill="none" stroke="black" d="M464.99,-421.64C487.56,-415.74 513.79,-408.19 537,-399.74 572.25,-386.91 610.88,-368.96 638.93,-355.17"/>
<polygon fill="black" stroke="black" points="640.61,-358.25 648.02,-350.67 637.51,-351.97 640.61,-358.25"/>
<text text-anchor="middle" x="640.5" y="-388.54" font-family="Times,serif" font-size="14.00">2</text>
<text text-anchor="middle" x="640.5" y="-373.54" font-family="Times,serif" font-size="14.00">(re)launches</text>
</g>
<!-- main.html\nsidebar -->
<g id="node5" class="node">
<title>main.html\nsidebar</title>
<ellipse fill="none" stroke="black" cx="348" cy="-618.61" rx="52.15" ry="26.74"/>
<text text-anchor="middle" x="348" y="-622.41" font-family="Times,serif" font-size="14.00">main.html</text>
<text text-anchor="middle" x="348" y="-607.41" font-family="Times,serif" font-size="14.00">sidebar</text>
</g>
<!-- various export links -->
<g id="node6" class="node">
<title>various export links</title>
<ellipse fill="none" stroke="black" cx="348" cy="-522.74" rx="81.49" ry="18"/>
<text text-anchor="middle" x="348" y="-519.04" font-family="Times,serif" font-size="14.00">various export links</text>
</g>
<!-- main.html\nsidebar&#45;&gt;various export links -->
<g id="edge4" class="edge">
<title>main.html\nsidebar&#45;&gt;various export links</title>
<path fill="none" stroke="black" d="M348,-591.71C348,-579.08 348,-563.88 348,-551.06"/>
<polygon fill="black" stroke="black" points="351.5,-550.96 348,-540.96 344.5,-550.96 351.5,-550.96"/>
</g>
<!-- vue web app -->
<g id="node9" class="node">
<title>vue web app</title>
<ellipse fill="lightgreen" stroke="lightgreen" cx="224" cy="-333.74" rx="55.79" ry="18"/>
<text text-anchor="middle" x="224" y="-330.04" font-family="Times,serif" font-size="14.00">vue web app</text>
</g>
<!-- main.html\nsidebar&#45;&gt;vue web app -->
<g id="edge18" class="edge">
<title>main.html\nsidebar&#45;&gt;vue web app</title>
<path fill="none" stroke="black" d="M300.21,-607.63C241.87,-592.6 145.71,-557.98 103,-486.74 99.57,-481.02 98.99,-477.06 103,-471.74 112.74,-458.82 124.91,-471.25 138,-461.74 177.9,-432.77 172.28,-410.52 200,-369.74 202.16,-366.57 204.43,-363.24 206.68,-359.95"/>
<polygon fill="black" stroke="black" points="209.73,-361.68 212.5,-351.46 203.96,-357.73 209.73,-361.68"/>
<text text-anchor="middle" x="121" y="-475.54" font-family="Times,serif" font-size="14.00">link to</text>
</g>
<!-- web front&#45;end (clara) -->
<g id="node19" class="node">
<title>web front&#45;end (clara)</title>
<ellipse fill="pink" stroke="pink" cx="705" cy="-435.74" rx="85.59" ry="18"/>
<text text-anchor="middle" x="705" y="-432.04" font-family="Times,serif" font-size="14.00">web front&#45;end (clara)</text>
</g>
<!-- main.html\nsidebar&#45;&gt;web front&#45;end (clara) -->
<g id="edge25" class="edge">
<title>main.html\nsidebar&#45;&gt;web front&#45;end (clara)</title>
<path fill="none" stroke="black" d="M381.1,-597.42C430.52,-567.74 526.97,-511.55 613,-471.74 625.73,-465.85 639.75,-460.14 652.93,-455.1"/>
<polygon fill="black" stroke="black" points="654.23,-458.35 662.35,-451.55 651.76,-451.8 654.23,-458.35"/>
<text text-anchor="middle" x="562.5" y="-526.54" font-family="Times,serif" font-size="14.00">3</text>
<text text-anchor="middle" x="562.5" y="-511.54" font-family="Times,serif" font-size="14.00">links to</text>
</g>
<!-- various export links&#45;&gt;gsheet/pyrest/hello.py -->
<g id="edge5" class="edge">
<title>various export links&#45;&gt;gsheet/pyrest/hello.py</title>
<path fill="none" stroke="black" d="M360.55,-504.54C369.51,-492.25 381.72,-475.51 391.76,-461.75"/>
<polygon fill="black" stroke="black" points="394.62,-463.77 397.68,-453.63 388.96,-459.64 394.62,-463.77"/>
</g>
<!-- various export links&#45;&gt;static files -->
<g id="edge7" class="edge">
<title>various export links&#45;&gt;static files</title>
<path fill="none" stroke="black" d="M335.62,-504.79C327.6,-494.5 316.53,-481.51 305,-471.74 302.88,-469.94 174.24,-392.22 112.01,-354.66"/>
<polygon fill="black" stroke="black" points="113.71,-351.6 103.34,-349.42 110.09,-357.59 113.71,-351.6"/>
<text text-anchor="middle" x="293.5" y="-432.04" font-family="Times,serif" font-size="14.00">to</text>
</g>
<!-- natural4&#45;exe&#45;&gt;gsheet/pyrest/hello.py -->
<g id="edge10" class="edge">
<title>natural4&#45;exe&#45;&gt;gsheet/pyrest/hello.py</title>
<path fill="none" stroke="black" d="M99.33,-451.16C119.49,-461.23 147.59,-473.45 174,-478.74 202.33,-484.42 275.65,-484.27 304,-478.74 326.01,-474.45 349.23,-465.57 368.3,-457"/>
<polygon fill="black" stroke="black" points="369.99,-460.08 377.59,-452.7 367.05,-453.72 369.99,-460.08"/>
<text text-anchor="middle" x="239" y="-475.54" font-family="Times,serif" font-size="14.00">returns after succeeding</text>
</g>
<!-- natural4&#45;exe&#45;&gt;static files -->
<g id="edge8" class="edge">
<title>natural4&#45;exe&#45;&gt;static files</title>
<path fill="none" stroke="black" d="M72.39,-417.32C73.61,-402.12 75.39,-379.81 76.8,-362.2"/>
<polygon fill="black" stroke="black" points="80.31,-362.21 77.62,-351.96 73.34,-361.65 80.31,-362.21"/>
<text text-anchor="middle" x="101.5" y="-381.04" font-family="Times,serif" font-size="14.00">produces</text>
</g>
<!-- vue&#39;s npm run serve -->
<g id="node11" class="node">
<title>vue&#39;s npm run serve</title>
<ellipse fill="lightgreen" stroke="lightgreen" cx="250" cy="-246.74" rx="81.79" ry="18"/>
<text text-anchor="middle" x="250" y="-243.04" font-family="Times,serif" font-size="14.00">vue&#39;s npm run serve</text>
</g>
<!-- vue web app&#45;&gt;vue&#39;s npm run serve -->
<g id="edge11" class="edge">
<title>vue web app&#45;&gt;vue&#39;s npm run serve</title>
<path fill="none" stroke="black" d="M211.42,-316.18C205.51,-306.27 200.79,-293.54 206,-282.74 208.11,-278.36 211.08,-274.35 214.47,-270.74"/>
<polygon fill="black" stroke="black" points="216.92,-273.25 221.93,-263.91 212.19,-268.09 216.92,-273.25"/>
<text text-anchor="middle" x="232.5" y="-286.54" font-family="Times,serif" font-size="14.00">served by</text>
</g>
<!-- v8k script&#45;&gt;vue&#39;s npm run serve -->
<g id="edge12" class="edge">
<title>v8k script&#45;&gt;vue&#39;s npm run serve</title>
<path fill="none" stroke="black" d="M314.26,-319.72C303.32,-314.01 291.34,-306.57 282,-297.74 274.74,-290.87 268.39,-282.04 263.3,-273.71"/>
<polygon fill="black" stroke="black" points="266.31,-271.92 258.29,-264.99 260.24,-275.4 266.31,-271.92"/>
<text text-anchor="middle" x="306.5" y="-286.54" font-family="Times,serif" font-size="14.00">manages</text>
</g>
<!-- the latest purescript -->
<g id="node13" class="node">
<title>the latest purescript</title>
<ellipse fill="lightgreen" stroke="lightgreen" cx="310" cy="-192.74" rx="79.89" ry="18"/>
<text text-anchor="middle" x="310" y="-189.04" font-family="Times,serif" font-size="14.00">the latest purescript</text>
</g>
<!-- v8k script&#45;&gt;the latest purescript -->
<g id="edge13" class="edge">
<title>v8k script&#45;&gt;the latest purescript</title>
<path fill="none" stroke="black" d="M347.65,-315.45C351.59,-292.56 355.51,-251.53 341,-220.74 340.6,-219.89 340.16,-219.06 339.69,-218.25"/>
<polygon fill="black" stroke="black" points="342.35,-215.97 333.48,-210.17 336.8,-220.24 342.35,-215.97"/>
<text text-anchor="middle" x="369.5" y="-286.54" font-family="Times,serif" font-size="14.00">copies</text>
</g>
<!-- in dev mode\nwith hot reloading -->
<g id="node12" class="node">
<title>in dev mode\nwith hot reloading</title>
<ellipse fill="lightgreen" stroke="lightgreen" cx="250" cy="-129.87" rx="82.05" ry="26.74"/>
<text text-anchor="middle" x="250" y="-133.67" font-family="Times,serif" font-size="14.00">in dev mode</text>
<text text-anchor="middle" x="250" y="-118.67" font-family="Times,serif" font-size="14.00">with hot reloading</text>
</g>
<!-- vue&#39;s npm run serve&#45;&gt;in dev mode\nwith hot reloading -->
<g id="edge15" class="edge">
<title>vue&#39;s npm run serve&#45;&gt;in dev mode\nwith hot reloading</title>
<path fill="none" stroke="black" stroke-dasharray="1,5" d="M237.33,-228.79C233.94,-223.31 230.74,-217.02 229,-210.74 224.73,-195.32 225.46,-190.34 229,-174.74 229.65,-171.88 230.51,-169 231.51,-166.14"/>
<polygon fill="black" stroke="black" points="234.85,-167.21 235.35,-156.62 228.36,-164.59 234.85,-167.21"/>
</g>
<!-- purs file on disk -->
<g id="node14" class="node">
<title>purs file on disk</title>
<ellipse fill="lightgreen" stroke="lightgreen" cx="286" cy="-34" rx="68.49" ry="18"/>
<text text-anchor="middle" x="286" y="-30.3" font-family="Times,serif" font-size="14.00">purs file on disk</text>
</g>
<!-- in dev mode\nwith hot reloading&#45;&gt;purs file on disk -->
<g id="edge16" class="edge">
<title>in dev mode\nwith hot reloading&#45;&gt;purs file on disk</title>
<path fill="none" stroke="black" d="M259.93,-102.97C264.91,-90 270.92,-74.32 275.92,-61.29"/>
<polygon fill="black" stroke="black" points="279.19,-62.53 279.5,-51.94 272.66,-60.02 279.19,-62.53"/>
<text text-anchor="middle" x="287.5" y="-73.8" font-family="Times,serif" font-size="14.00">reads</text>
</g>
<!-- the latest purescript&#45;&gt;purs file on disk -->
<g id="edge14" class="edge">
<title>the latest purescript&#45;&gt;purs file on disk</title>
<path fill="none" stroke="black" d="M329.26,-174.93C334.01,-169.64 338.47,-163.42 341,-156.74 349.47,-134.41 348.97,-125.52 341,-103 335.1,-86.33 323.18,-70.75 311.94,-58.72"/>
<polygon fill="black" stroke="black" points="314.23,-56.05 304.73,-51.35 309.23,-60.94 314.23,-56.05"/>
<text text-anchor="middle" x="353.5" y="-126.17" font-family="Times,serif" font-size="14.00">to</text>
</g>
<!-- clara format -->
<g id="node16" class="node">
<title>clara format</title>
<ellipse fill="pink" stroke="pink" cx="679" cy="-246.74" rx="53.89" ry="18"/>
<text text-anchor="middle" x="679" y="-243.04" font-family="Times,serif" font-size="14.00">clara format</text>
</g>
<!-- rules&#45;&gt;clara format -->
<g id="edge19" class="edge">
<title>rules&#45;&gt;clara format</title>
<path fill="none" stroke="black" d="M560.31,-320.08C566.23,-316.07 572.85,-311.66 579,-307.74 600.52,-294.03 625.09,-279.27 644.49,-267.83"/>
<polygon fill="black" stroke="black" points="646.44,-270.74 653.29,-262.66 642.89,-264.71 646.44,-270.74"/>
<text text-anchor="middle" x="622.5" y="-286.54" font-family="Times,serif" font-size="14.00">to</text>
</g>
<!-- shadow&#45;cljs watch app&#45;&gt;clara format -->
<g id="edge20" class="edge">
<title>shadow&#45;cljs watch app&#45;&gt;clara format</title>
<path fill="none" stroke="black" d="M679,-315.54C679,-303.9 679,-288.29 679,-274.98"/>
<polygon fill="black" stroke="black" points="682.5,-274.92 679,-264.92 675.5,-274.92 682.5,-274.92"/>
<text text-anchor="middle" x="703.5" y="-286.54" font-family="Times,serif" font-size="14.00">monitors</text>
</g>
<!-- clara engine -->
<g id="node18" class="node">
<title>clara engine</title>
<ellipse fill="pink" stroke="pink" cx="842" cy="-333.74" rx="53.89" ry="18"/>
<text text-anchor="middle" x="842" y="-330.04" font-family="Times,serif" font-size="14.00">clara engine</text>
</g>
<!-- clara engine&#45;&gt;clara format -->
<g id="edge21" class="edge">
<title>clara engine&#45;&gt;clara format</title>
<path fill="none" stroke="black" d="M813.98,-318.13C786.96,-304.04 745.89,-282.62 716.15,-267.11"/>
<polygon fill="black" stroke="black" points="717.41,-263.82 706.93,-262.3 714.18,-270.03 717.41,-263.82"/>
<text text-anchor="middle" x="784.5" y="-286.54" font-family="Times,serif" font-size="14.00">reads</text>
</g>
<!-- web front&#45;end (clara)&#45;&gt;clara engine -->
<g id="edge22" class="edge">
<title>web front&#45;end (clara)&#45;&gt;clara engine</title>
<path fill="none" stroke="black" d="M727.62,-418.23C750.84,-401.28 787.07,-374.84 812.51,-356.26"/>
<polygon fill="black" stroke="black" points="814.68,-359.01 820.7,-350.29 810.56,-353.36 814.68,-359.01"/>
<text text-anchor="middle" x="819.5" y="-388.54" font-family="Times,serif" font-size="14.00">4</text>
<text text-anchor="middle" x="819.5" y="-373.54" font-family="Times,serif" font-size="14.00">served by</text>
</g>
</g>
</svg>
