<?xml version="1.0" encoding="UTF-8" standalone="no"?>
<!DOCTYPE svg PUBLIC "-//W3C//DTD SVG 1.1//EN"
 "http://www.w3.org/Graphics/SVG/1.1/DTD/svg11.dtd">
<!-- Generated by graphviz version 2.43.0 (0)
 -->
<!-- Title: %3 Pages: 1 -->
<svg width="1175pt" height="917pt"
 viewBox="0.00 0.00 1175.44 917.48" xmlns="http://www.w3.org/2000/svg" xmlns:xlink="http://www.w3.org/1999/xlink">
<g id="graph0" class="graph" transform="scale(1 1) rotate(0) translate(4 913.48)">
<title>%3</title>
<polygon fill="white" stroke="transparent" points="-4,4 -4,-913.48 1171.44,-913.48 1171.44,4 -4,4"/>
<g id="clust1" class="cluster">
<title>cluster_natural4</title>
<polygon fill="lightgrey" stroke="lightgrey" points="142.44,-322.74 142.44,-476.74 268.44,-476.74 268.44,-322.74 142.44,-322.74"/>
</g>
<g id="clust2" class="cluster">
<title>cluster_vue</title>
<polygon fill="lightgrey" stroke="lightgrey" points="921.44,-8 921.44,-374.74 1159.44,-374.74 1159.44,-8 921.44,-8"/>
</g>
<g id="clust3" class="cluster">
<title>cluster_dmn</title>
<polygon fill="lightgrey" stroke="lightgrey" points="276.44,-103.87 276.44,-374.74 442.44,-374.74 442.44,-103.87 276.44,-103.87"/>
</g>
<g id="clust4" class="cluster">
<title>cluster_new</title>
<polygon fill="lightgrey" stroke="lightgrey" points="525.44,-103.87 525.44,-374.74 913.44,-374.74 913.44,-103.87 525.44,-103.87"/>
</g>
<!-- hello -->
<g id="node1" class="node">
<title>hello</title>
<ellipse fill="none" stroke="black" cx="509.44" cy="-450.74" rx="88.28" ry="18"/>
<text text-anchor="middle" x="509.44" y="-447.04" font-family="Times,serif" font-size="14.00">gsheet/pyrest/hello.py</text>
</g>
<!-- static files -->
<g id="node6" class="node">
<title>static files</title>
<ellipse fill="lightblue" stroke="lightblue" cx="210.44" cy="-348.74" rx="46.59" ry="18"/>
<text text-anchor="middle" x="210.44" y="-345.04" font-family="Times,serif" font-size="14.00">static files</text>
</g>
<!-- hello&#45;&gt;static files -->
<g id="edge6" class="edge">
<title>hello&#45;&gt;static files</title>
<path fill="none" stroke="black" d="M437.36,-440.29C413.68,-435.1 387.94,-427.08 366.44,-414.74 350.36,-405.51 353.91,-393.26 337.44,-384.74 311.48,-371.31 300.63,-382.48 272.44,-374.74 264.65,-372.6 256.51,-369.78 248.79,-366.8"/>
<polygon fill="black" stroke="black" points="249.88,-363.46 239.29,-362.98 247.27,-369.96 249.88,-363.46"/>
<text text-anchor="middle" x="383.44" y="-396.04" font-family="Times,serif" font-size="14.00">serves</text>
</g>
<!-- natural4&#45;exe -->
<g id="node7" class="node">
<title>natural4&#45;exe</title>
<ellipse fill="lightblue" stroke="lightblue" cx="205.44" cy="-450.74" rx="54.69" ry="18"/>
<text text-anchor="middle" x="205.44" y="-447.04" font-family="Times,serif" font-size="14.00">natural4&#45;exe</text>
</g>
<!-- hello&#45;&gt;natural4&#45;exe -->
<g id="edge9" class="edge">
<title>hello&#45;&gt;natural4&#45;exe</title>
<path fill="none" stroke="black" d="M420.91,-450.74C372.77,-450.74 314.29,-450.74 270.4,-450.74"/>
<polygon fill="black" stroke="black" points="270.14,-447.24 260.14,-450.74 270.14,-454.24 270.14,-447.24"/>
<text text-anchor="middle" x="340.54" y="-472.54" font-family="Times,serif" font-size="14.00">21</text>
<text text-anchor="middle" x="340.54" y="-457.54" font-family="Times,serif" font-size="14.00">calls</text>
</g>
<!-- v8k script -->
<g id="node9" class="node">
<title>v8k script</title>
<ellipse fill="lightgreen" stroke="lightgreen" cx="975.44" cy="-348.74" rx="46.29" ry="18"/>
<text text-anchor="middle" x="975.44" y="-345.04" font-family="Times,serif" font-size="14.00">v8k script</text>
</g>
<!-- hello&#45;&gt;v8k script -->
<g id="edge17" class="edge">
<title>hello&#45;&gt;v8k script</title>
<path fill="none" stroke="black" d="M584.34,-441.12C667.1,-430.41 803.72,-409.22 917.44,-374.74 924.21,-372.69 931.25,-370.08 937.99,-367.33"/>
<polygon fill="black" stroke="black" points="939.76,-370.38 947.6,-363.25 937.02,-363.94 939.76,-370.38"/>
<text text-anchor="middle" x="885.94" y="-403.54" font-family="Times,serif" font-size="14.00">53</text>
<text text-anchor="middle" x="885.94" y="-388.54" font-family="Times,serif" font-size="14.00">calls</text>
</g>
<!-- babyl4 executable -->
<g id="node15" class="node">
<title>babyl4 executable</title>
<ellipse fill="hotpink" stroke="hotpink" cx="359.44" cy="-246.74" rx="74.99" ry="18"/>
<text text-anchor="middle" x="359.44" y="-243.04" font-family="Times,serif" font-size="14.00">babyl4 executable</text>
</g>
<!-- hello&#45;&gt;babyl4 executable -->
<g id="edge22" class="edge">
<title>hello&#45;&gt;babyl4 executable</title>
<path fill="none" stroke="black" d="M492.41,-432.8C487.1,-427.22 481.34,-420.87 476.44,-414.74 433.58,-361.18 438.93,-336.6 396.44,-282.74 393.38,-278.87 389.9,-275.02 386.32,-271.37"/>
<polygon fill="black" stroke="black" points="388.57,-268.67 378.95,-264.21 383.69,-273.69 388.57,-268.67"/>
<text text-anchor="middle" x="460.44" y="-352.54" font-family="Times,serif" font-size="14.00">54</text>
<text text-anchor="middle" x="460.44" y="-337.54" font-family="Times,serif" font-size="14.00">runs</text>
</g>
<!-- rules -->
<g id="node17" class="node">
<title>rules</title>
<ellipse fill="pink" stroke="pink" cx="561.44" cy="-246.74" rx="27.9" ry="18"/>
<text text-anchor="middle" x="561.44" y="-243.04" font-family="Times,serif" font-size="14.00">rules</text>
</g>
<!-- hello&#45;&gt;rules -->
<g id="edge29" class="edge">
<title>hello&#45;&gt;rules</title>
<path fill="none" stroke="black" d="M499.73,-432.66C486.87,-407.66 467.57,-360.01 483.44,-322.74 493.56,-298.97 515.31,-279.1 533.28,-265.8"/>
<polygon fill="black" stroke="black" points="535.6,-268.44 541.73,-259.8 531.55,-262.73 535.6,-268.44"/>
<text text-anchor="middle" x="503.94" y="-352.54" font-family="Times,serif" font-size="14.00">51</text>
<text text-anchor="middle" x="503.94" y="-337.54" font-family="Times,serif" font-size="14.00">convert</text>
</g>
<!-- shadow&#45;cljs watch app -->
<g id="node19" class="node">
<title>shadow&#45;cljs watch app</title>
<ellipse fill="pink" stroke="pink" cx="624.44" cy="-348.74" rx="90.98" ry="18"/>
<text text-anchor="middle" x="624.44" y="-345.04" font-family="Times,serif" font-size="14.00">shadow&#45;cljs watch app</text>
</g>
<!-- hello&#45;&gt;shadow&#45;cljs watch app -->
<g id="edge30" class="edge">
<title>hello&#45;&gt;shadow&#45;cljs watch app</title>
<path fill="none" stroke="black" d="M528.69,-433C547.51,-416.63 576.35,-391.56 597.45,-373.21"/>
<polygon fill="black" stroke="black" points="599.88,-375.74 605.13,-366.53 595.29,-370.45 599.88,-375.74"/>
<text text-anchor="middle" x="616.94" y="-403.54" font-family="Times,serif" font-size="14.00">52</text>
<text text-anchor="middle" x="616.94" y="-388.54" font-family="Times,serif" font-size="14.00">(re)launches</text>
</g>
<!-- legalSS spreadsheet onEdit() -->
<g id="node2" class="node">
<title>legalSS spreadsheet onEdit()</title>
<ellipse fill="none" stroke="black" cx="112.44" cy="-891.48" rx="112.38" ry="18"/>
<text text-anchor="middle" x="112.44" y="-887.78" font-family="Times,serif" font-size="14.00">legalSS spreadsheet onEdit()</text>
</g>
<!-- Code.gs -->
<g id="node3" class="node">
<title>Code.gs</title>
<ellipse fill="none" stroke="black" cx="112.44" cy="-804.48" rx="39.79" ry="18"/>
<text text-anchor="middle" x="112.44" y="-800.78" font-family="Times,serif" font-size="14.00">Code.gs</text>
</g>
<!-- legalSS spreadsheet onEdit()&#45;&gt;Code.gs -->
<g id="edge1" class="edge">
<title>legalSS spreadsheet onEdit()&#45;&gt;Code.gs</title>
<path fill="none" stroke="black" d="M112.44,-873.28C112.44,-861.64 112.44,-846.03 112.44,-832.72"/>
<polygon fill="black" stroke="black" points="115.94,-832.66 112.44,-822.66 108.94,-832.66 115.94,-832.66"/>
<text text-anchor="middle" x="141.94" y="-844.28" font-family="Times,serif" font-size="14.00">parse CSV</text>
</g>
<!-- Code.gs&#45;&gt;hello -->
<g id="edge2" class="edge">
<title>Code.gs&#45;&gt;hello</title>
<path fill="none" stroke="black" d="M129.75,-788.14C192.39,-732.64 407.48,-542.08 482.98,-475.18"/>
<polygon fill="black" stroke="black" points="485.5,-477.63 490.67,-468.37 480.86,-472.39 485.5,-477.63"/>
<text text-anchor="middle" x="423.94" y="-622.54" font-family="Times,serif" font-size="14.00">11</text>
<text text-anchor="middle" x="423.94" y="-607.54" font-family="Times,serif" font-size="14.00">ships CSV (port :808x) to;</text>
<text text-anchor="middle" x="423.94" y="-592.54" font-family="Times,serif" font-size="14.00">and returns JSON from</text>
</g>
<!-- main.html\nsidebar -->
<g id="node4" class="node">
<title>main.html\nsidebar</title>
<ellipse fill="none" stroke="black" cx="712.44" cy="-678.61" rx="52.15" ry="26.74"/>
<text text-anchor="middle" x="712.44" y="-682.41" font-family="Times,serif" font-size="14.00">main.html</text>
<text text-anchor="middle" x="712.44" y="-667.41" font-family="Times,serif" font-size="14.00">sidebar</text>
</g>
<!-- Code.gs&#45;&gt;main.html\nsidebar -->
<g id="edge3" class="edge">
<title>Code.gs&#45;&gt;main.html\nsidebar</title>
<path fill="none" stroke="black" d="M147.73,-796.19C247.3,-775.64 531.13,-717.04 654.27,-691.62"/>
<polygon fill="black" stroke="black" points="655.18,-695.01 664.26,-689.56 653.76,-688.15 655.18,-695.01"/>
<text text-anchor="middle" x="540.94" y="-757.28" font-family="Times,serif" font-size="14.00">61</text>
<text text-anchor="middle" x="540.94" y="-742.28" font-family="Times,serif" font-size="14.00">fills HTML template</text>
<text text-anchor="middle" x="540.94" y="-727.28" font-family="Times,serif" font-size="14.00">with various urls</text>
</g>
<!-- various export links -->
<g id="node5" class="node">
<title>various export links</title>
<ellipse fill="none" stroke="black" cx="509.44" cy="-552.74" rx="81.49" ry="18"/>
<text text-anchor="middle" x="509.44" y="-549.04" font-family="Times,serif" font-size="14.00">various export links</text>
</g>
<!-- main.html\nsidebar&#45;&gt;various export links -->
<g id="edge4" class="edge">
<title>main.html\nsidebar&#45;&gt;various export links</title>
<path fill="none" stroke="black" d="M679.37,-657.43C642.35,-634.84 582.57,-598.37 544.68,-575.25"/>
<polygon fill="black" stroke="black" points="546.37,-572.18 536.01,-569.96 542.73,-578.15 546.37,-572.18"/>
</g>
<!-- vue web app -->
<g id="node8" class="node">
<title>vue web app</title>
<ellipse fill="lightgreen" stroke="lightgreen" cx="1095.44" cy="-348.74" rx="55.79" ry="18"/>
<text text-anchor="middle" x="1095.44" y="-345.04" font-family="Times,serif" font-size="14.00">vue web app</text>
</g>
<!-- main.html\nsidebar&#45;&gt;vue web app -->
<g id="edge18" class="edge">
<title>main.html\nsidebar&#45;&gt;vue web app</title>
<path fill="none" stroke="black" d="M738.77,-655.07C808.6,-595.29 998.02,-433.14 1068.52,-372.78"/>
<polygon fill="black" stroke="black" points="1071.2,-375.1 1076.52,-365.94 1066.64,-369.78 1071.2,-375.1"/>
<text text-anchor="middle" x="952.44" y="-498.04" font-family="Times,serif" font-size="14.00">link to</text>
</g>
<!-- web front&#45;end (clara) -->
<g id="node21" class="node">
<title>web front&#45;end (clara)</title>
<ellipse fill="pink" stroke="pink" cx="819.44" cy="-348.74" rx="85.59" ry="18"/>
<text text-anchor="middle" x="819.44" y="-345.04" font-family="Times,serif" font-size="14.00">web front&#45;end (clara)</text>
</g>
<!-- main.html\nsidebar&#45;&gt;web front&#45;end (clara) -->
<g id="edge31" class="edge">
<title>main.html\nsidebar&#45;&gt;web front&#45;end (clara)</title>
<path fill="none" stroke="black" d="M720.84,-651.88C740.68,-591.09 790.31,-439.01 810.59,-376.86"/>
<polygon fill="black" stroke="black" points="814.03,-377.6 813.81,-367.01 807.38,-375.43 814.03,-377.6"/>
<text text-anchor="middle" x="794.94" y="-505.54" font-family="Times,serif" font-size="14.00">53</text>
<text text-anchor="middle" x="794.94" y="-490.54" font-family="Times,serif" font-size="14.00">links to</text>
</g>
<!-- various export links&#45;&gt;hello -->
<g id="edge5" class="edge">
<title>various export links&#45;&gt;hello</title>
<path fill="none" stroke="black" d="M509.44,-534.32C509.44,-519.12 509.44,-496.81 509.44,-479.2"/>
<polygon fill="black" stroke="black" points="512.94,-478.96 509.44,-468.96 505.94,-478.96 512.94,-478.96"/>
</g>
<!-- various export links&#45;&gt;static files -->
<g id="edge7" class="edge">
<title>various export links&#45;&gt;static files</title>
<path fill="none" stroke="black" d="M431.24,-547.62C331.59,-540.54 167.75,-522.15 130.44,-476.74 102.15,-442.31 147.36,-397.21 180.49,-371.05"/>
<polygon fill="black" stroke="black" points="182.79,-373.7 188.6,-364.83 178.53,-368.14 182.79,-373.7"/>
<text text-anchor="middle" x="135.94" y="-447.04" font-family="Times,serif" font-size="14.00">to</text>
</g>
<!-- dmn xml -->
<g id="node16" class="node">
<title>dmn xml</title>
<ellipse fill="hotpink" stroke="hotpink" cx="343.44" cy="-129.87" rx="43.59" ry="18"/>
<text text-anchor="middle" x="343.44" y="-126.17" font-family="Times,serif" font-size="14.00">dmn xml</text>
</g>
<!-- static files&#45;&gt;dmn xml -->
<g id="edge23" class="edge">
<title>static files&#45;&gt;dmn xml</title>
<path fill="none" stroke="black" stroke-dasharray="1,5" d="M209.59,-330.38C209.18,-306.08 211.26,-261.24 229.44,-228.74 250.45,-191.17 291.73,-161.38 318.43,-144.94"/>
<text text-anchor="middle" x="252.44" y="-243.04" font-family="Times,serif" font-size="14.00">includes</text>
</g>
<!-- natural4&#45;exe&#45;&gt;hello -->
<g id="edge10" class="edge">
<title>natural4&#45;exe&#45;&gt;hello</title>
<path fill="none" stroke="black" d="M260.14,-450.74C301.96,-450.74 360.73,-450.74 410.71,-450.74"/>
<polygon fill="black" stroke="black" points="410.91,-454.24 420.91,-450.74 410.91,-447.24 410.91,-454.24"/>
<text text-anchor="middle" x="340.54" y="-457.54" font-family="Times,serif" font-size="14.00">41returns after succeeding</text>
</g>
<!-- natural4&#45;exe&#45;&gt;static files -->
<g id="edge8" class="edge">
<title>natural4&#45;exe&#45;&gt;static files</title>
<path fill="none" stroke="black" d="M206.31,-432.32C207.07,-417.12 208.19,-394.81 209.07,-377.2"/>
<polygon fill="black" stroke="black" points="212.58,-377.12 209.58,-366.96 205.58,-376.77 212.58,-377.12"/>
<text text-anchor="middle" x="232.94" y="-396.04" font-family="Times,serif" font-size="14.00">produces</text>
</g>
<!-- corel4 file -->
<g id="node14" class="node">
<title>corel4 file</title>
<ellipse fill="hotpink" stroke="hotpink" cx="331.44" cy="-348.74" rx="46.59" ry="18"/>
<text text-anchor="middle" x="331.44" y="-345.04" font-family="Times,serif" font-size="14.00">corel4 file</text>
</g>
<!-- natural4&#45;exe&#45;&gt;corel4 file -->
<g id="edge21" class="edge">
<title>natural4&#45;exe&#45;&gt;corel4 file</title>
<path fill="none" stroke="black" d="M231.49,-434.87C241.17,-428.99 252.06,-421.92 261.44,-414.74 278.06,-402.01 295.31,-386.03 308.53,-373.1"/>
<polygon fill="black" stroke="black" points="311.17,-375.42 315.81,-365.89 306.24,-370.44 311.17,-375.42"/>
<text text-anchor="middle" x="314.44" y="-403.54" font-family="Times,serif" font-size="14.00">31</text>
<text text-anchor="middle" x="314.44" y="-388.54" font-family="Times,serif" font-size="14.00">outputs</text>
</g>
<!-- vue&#39;s npm run serve -->
<g id="node10" class="node">
<title>vue&#39;s npm run serve</title>
<ellipse fill="lightgreen" stroke="lightgreen" cx="1069.44" cy="-246.74" rx="81.79" ry="18"/>
<text text-anchor="middle" x="1069.44" y="-243.04" font-family="Times,serif" font-size="14.00">vue&#39;s npm run serve</text>
</g>
<!-- vue web app&#45;&gt;vue&#39;s npm run serve -->
<g id="edge11" class="edge">
<title>vue web app&#45;&gt;vue&#39;s npm run serve</title>
<path fill="none" stroke="black" d="M1091.03,-330.78C1087.03,-315.4 1081.08,-292.49 1076.43,-274.63"/>
<polygon fill="black" stroke="black" points="1079.78,-273.58 1073.87,-264.79 1073,-275.35 1079.78,-273.58"/>
<text text-anchor="middle" x="1111.94" y="-294.04" font-family="Times,serif" font-size="14.00">served by</text>
</g>
<!-- v8k script&#45;&gt;vue&#39;s npm run serve -->
<g id="edge12" class="edge">
<title>v8k script&#45;&gt;vue&#39;s npm run serve</title>
<path fill="none" stroke="black" d="M988.69,-331.47C993.4,-325.61 998.71,-318.92 1003.44,-312.74 1013.5,-299.62 1013.98,-294.66 1025.44,-282.74 1029.51,-278.5 1034.11,-274.32 1038.75,-270.41"/>
<polygon fill="black" stroke="black" points="1040.96,-273.12 1046.52,-264.1 1036.55,-267.68 1040.96,-273.12"/>
<text text-anchor="middle" x="1049.94" y="-294.04" font-family="Times,serif" font-size="14.00">manages</text>
</g>
<!-- the latest purescript -->
<g id="node12" class="node">
<title>the latest purescript</title>
<ellipse fill="lightgreen" stroke="lightgreen" cx="1009.44" cy="-192.74" rx="79.89" ry="18"/>
<text text-anchor="middle" x="1009.44" y="-189.04" font-family="Times,serif" font-size="14.00">the latest purescript</text>
</g>
<!-- v8k script&#45;&gt;the latest purescript -->
<g id="edge13" class="edge">
<title>v8k script&#45;&gt;the latest purescript</title>
<path fill="none" stroke="black" d="M969.01,-330.9C967.15,-325.22 965.37,-318.78 964.44,-312.74 962.42,-299.56 962.75,-295.97 964.44,-282.74 967.58,-258.15 966.79,-250.62 978.44,-228.74 980.36,-225.14 982.72,-221.6 985.28,-218.23"/>
<polygon fill="black" stroke="black" points="988.17,-220.23 991.89,-210.31 982.8,-215.74 988.17,-220.23"/>
<text text-anchor="middle" x="981.94" y="-294.04" font-family="Times,serif" font-size="14.00">copies</text>
</g>
<!-- in dev mode\nwith hot reloading -->
<g id="node11" class="node">
<title>in dev mode\nwith hot reloading</title>
<ellipse fill="lightgreen" stroke="lightgreen" cx="1069.44" cy="-129.87" rx="82.05" ry="26.74"/>
<text text-anchor="middle" x="1069.44" y="-133.67" font-family="Times,serif" font-size="14.00">in dev mode</text>
<text text-anchor="middle" x="1069.44" y="-118.67" font-family="Times,serif" font-size="14.00">with hot reloading</text>
</g>
<!-- vue&#39;s npm run serve&#45;&gt;in dev mode\nwith hot reloading -->
<g id="edge15" class="edge">
<title>vue&#39;s npm run serve&#45;&gt;in dev mode\nwith hot reloading</title>
<path fill="none" stroke="black" stroke-dasharray="1,5" d="M1082.11,-228.79C1085.5,-223.31 1088.7,-217.02 1090.44,-210.74 1094.71,-195.32 1093.98,-190.34 1090.44,-174.74 1089.79,-171.88 1088.93,-169 1087.93,-166.14"/>
<polygon fill="black" stroke="black" points="1091.08,-164.59 1084.09,-156.62 1084.59,-167.21 1091.08,-164.59"/>
</g>
<!-- purs file on disk -->
<g id="node13" class="node">
<title>purs file on disk</title>
<ellipse fill="lightgreen" stroke="lightgreen" cx="1033.44" cy="-34" rx="68.49" ry="18"/>
<text text-anchor="middle" x="1033.44" y="-30.3" font-family="Times,serif" font-size="14.00">purs file on disk</text>
</g>
<!-- in dev mode\nwith hot reloading&#45;&gt;purs file on disk -->
<g id="edge16" class="edge">
<title>in dev mode\nwith hot reloading&#45;&gt;purs file on disk</title>
<path fill="none" stroke="black" d="M1059.51,-102.97C1054.53,-90 1048.52,-74.32 1043.52,-61.29"/>
<polygon fill="black" stroke="black" points="1046.78,-60.02 1039.94,-51.94 1040.25,-62.53 1046.78,-60.02"/>
<text text-anchor="middle" x="1066.94" y="-73.8" font-family="Times,serif" font-size="14.00">reads</text>
</g>
<!-- the latest purescript&#45;&gt;purs file on disk -->
<g id="edge14" class="edge">
<title>the latest purescript&#45;&gt;purs file on disk</title>
<path fill="none" stroke="black" d="M983.06,-175.72C976.78,-170.51 970.9,-164.13 967.44,-156.74 957.31,-135.11 958.46,-125.13 967.44,-103 974.68,-85.16 989.09,-69.42 1002.6,-57.59"/>
<polygon fill="black" stroke="black" points="1004.96,-60.18 1010.4,-51.09 1000.48,-54.8 1004.96,-60.18"/>
<text text-anchor="middle" x="972.94" y="-126.17" font-family="Times,serif" font-size="14.00">to</text>
</g>
<!-- corel4 file&#45;&gt;babyl4 executable -->
<g id="edge20" class="edge">
<title>corel4 file&#45;&gt;babyl4 executable</title>
<path fill="none" stroke="black" d="M336.19,-330.78C340.49,-315.4 346.91,-292.49 351.91,-274.63"/>
<polygon fill="black" stroke="black" points="355.34,-275.36 354.67,-264.79 348.6,-273.47 355.34,-275.36"/>
<text text-anchor="middle" x="370.94" y="-294.04" font-family="Times,serif" font-size="14.00">input to</text>
</g>
<!-- babyl4 executable&#45;&gt;dmn xml -->
<g id="edge19" class="edge">
<title>babyl4 executable&#45;&gt;dmn xml</title>
<path fill="none" stroke="black" d="M357.01,-228.29C354.41,-209.63 350.25,-179.79 347.22,-158.04"/>
<polygon fill="black" stroke="black" points="350.69,-157.53 345.84,-148.1 343.75,-158.49 350.69,-157.53"/>
<text text-anchor="middle" x="379.44" y="-189.04" font-family="Times,serif" font-size="14.00">generates</text>
</g>
<!-- clara format -->
<g id="node18" class="node">
<title>clara format</title>
<ellipse fill="pink" stroke="pink" cx="625.44" cy="-129.87" rx="53.89" ry="18"/>
<text text-anchor="middle" x="625.44" y="-126.17" font-family="Times,serif" font-size="14.00">clara format</text>
</g>
<!-- rules&#45;&gt;clara format -->
<g id="edge24" class="edge">
<title>rules&#45;&gt;clara format</title>
<path fill="none" stroke="black" d="M570.61,-229.28C581.19,-210.28 598.73,-178.8 611.12,-156.57"/>
<polygon fill="black" stroke="black" points="614.27,-158.11 616.08,-147.67 608.15,-154.7 614.27,-158.11"/>
<text text-anchor="middle" x="603.94" y="-189.04" font-family="Times,serif" font-size="14.00">to</text>
</g>
<!-- shadow&#45;cljs watch app&#45;&gt;clara format -->
<g id="edge25" class="edge">
<title>shadow&#45;cljs watch app&#45;&gt;clara format</title>
<path fill="none" stroke="black" d="M624.52,-330.72C624.69,-293.28 625.11,-203.5 625.31,-158.12"/>
<polygon fill="black" stroke="black" points="628.81,-158.12 625.36,-148.11 621.81,-158.09 628.81,-158.12"/>
<text text-anchor="middle" x="646.44" y="-243.04" font-family="Times,serif" font-size="14.00">watches</text>
</g>
<!-- clara engine -->
<g id="node20" class="node">
<title>clara engine</title>
<ellipse fill="pink" stroke="pink" cx="741.44" cy="-246.74" rx="53.89" ry="18"/>
<text text-anchor="middle" x="741.44" y="-243.04" font-family="Times,serif" font-size="14.00">clara engine</text>
</g>
<!-- shadow&#45;cljs watch app&#45;&gt;clara engine -->
<g id="edge26" class="edge">
<title>shadow&#45;cljs watch app&#45;&gt;clara engine</title>
<path fill="none" stroke="black" d="M644.02,-331C663.4,-314.44 693.22,-288.96 714.76,-270.55"/>
<polygon fill="black" stroke="black" points="717.24,-273.03 722.57,-263.87 712.69,-267.71 717.24,-273.03"/>
<text text-anchor="middle" x="723.94" y="-294.04" font-family="Times,serif" font-size="14.00">manages</text>
</g>
<!-- clara engine&#45;&gt;clara format -->
<g id="edge27" class="edge">
<title>clara engine&#45;&gt;clara format</title>
<path fill="none" stroke="black" d="M724.82,-229.28C705.01,-209.66 671.76,-176.73 649.22,-154.42"/>
<polygon fill="black" stroke="black" points="651.6,-151.85 642.03,-147.3 646.67,-156.82 651.6,-151.85"/>
<text text-anchor="middle" x="717.94" y="-189.04" font-family="Times,serif" font-size="14.00">reads</text>
</g>
<!-- web front&#45;end (clara)&#45;&gt;clara engine -->
<g id="edge28" class="edge">
<title>web front&#45;end (clara)&#45;&gt;clara engine</title>
<path fill="none" stroke="black" d="M806.21,-330.78C793.81,-314.88 775.11,-290.91 760.99,-272.81"/>
<polygon fill="black" stroke="black" points="763.39,-270.19 754.48,-264.45 757.87,-274.49 763.39,-270.19"/>
<text text-anchor="middle" x="817.94" y="-301.54" font-family="Times,serif" font-size="14.00">4</text>
<text text-anchor="middle" x="817.94" y="-286.54" font-family="Times,serif" font-size="14.00">served by</text>
</g>
</g>
</svg>
