<?xml version="1.0" encoding="UTF-8" standalone="no"?>
<!DOCTYPE svg PUBLIC "-//W3C//DTD SVG 1.1//EN"
 "http://www.w3.org/Graphics/SVG/1.1/DTD/svg11.dtd">
<!-- Generated by graphviz version 2.43.0 (0)
 -->
<!-- Title: %3 Pages: 1 -->
<svg width="1175pt" height="887pt"
 viewBox="0.00 0.00 1175.44 887.48" xmlns="http://www.w3.org/2000/svg" xmlns:xlink="http://www.w3.org/1999/xlink">
<g id="graph0" class="graph" transform="scale(1 1) rotate(0) translate(4 883.48)">
<title>%3</title>
<polygon fill="white" stroke="transparent" points="-4,4 -4,-883.48 1171.44,-883.48 1171.44,4 -4,4"/>
<g id="clust1" class="cluster">
<title>cluster_natural4</title>
<polygon fill="lightgrey" stroke="lightgrey" points="142.44,-307.74 142.44,-461.74 268.44,-461.74 268.44,-307.74 142.44,-307.74"/>
</g>
<g id="clust2" class="cluster">
<title>cluster_vue</title>
<polygon fill="lightgrey" stroke="lightgrey" points="921.44,-8 921.44,-359.74 1159.44,-359.74 1159.44,-8 921.44,-8"/>
</g>
<g id="clust3" class="cluster">
<title>cluster_dmn</title>
<polygon fill="lightgrey" stroke="lightgrey" points="276.44,-103.87 276.44,-359.74 442.44,-359.74 442.44,-103.87 276.44,-103.87"/>
</g>
<g id="clust4" class="cluster">
<title>cluster_new</title>
<polygon fill="lightgrey" stroke="lightgrey" points="525.44,-103.87 525.44,-359.74 913.44,-359.74 913.44,-103.87 525.44,-103.87"/>
</g>
<!-- hello -->
<g id="node1" class="node">
<title>hello</title>
<ellipse fill="none" stroke="black" cx="509.44" cy="-435.74" rx="88.28" ry="18"/>
<text text-anchor="middle" x="509.44" y="-432.04" font-family="Times,serif" font-size="14.00">gsheet/pyrest/hello.py</text>
</g>
<!-- static files -->
<g id="node6" class="node">
<title>static files</title>
<ellipse fill="lightblue" stroke="lightblue" cx="210.44" cy="-333.74" rx="46.59" ry="18"/>
<text text-anchor="middle" x="210.44" y="-330.04" font-family="Times,serif" font-size="14.00">static files</text>
</g>
<!-- hello&#45;&gt;static files -->
<g id="edge6" class="edge">
<title>hello&#45;&gt;static files</title>
<path fill="none" stroke="black" d="M437.36,-425.29C413.68,-420.1 387.94,-412.08 366.44,-399.74 350.36,-390.51 353.91,-378.26 337.44,-369.74 311.48,-356.31 300.63,-367.48 272.44,-359.74 264.65,-357.6 256.51,-354.78 248.79,-351.8"/>
<polygon fill="black" stroke="black" points="249.88,-348.46 239.29,-347.98 247.27,-354.96 249.88,-348.46"/>
<text text-anchor="middle" x="383.44" y="-381.04" font-family="Times,serif" font-size="14.00">serves</text>
</g>
<!-- natural4&#45;exe -->
<g id="node7" class="node">
<title>natural4&#45;exe</title>
<ellipse fill="lightblue" stroke="lightblue" cx="205.44" cy="-435.74" rx="54.69" ry="18"/>
<text text-anchor="middle" x="205.44" y="-432.04" font-family="Times,serif" font-size="14.00">natural4&#45;exe</text>
</g>
<!-- hello&#45;&gt;natural4&#45;exe -->
<g id="edge9" class="edge">
<title>hello&#45;&gt;natural4&#45;exe</title>
<path fill="none" stroke="black" d="M420.91,-435.74C372.77,-435.74 314.29,-435.74 270.4,-435.74"/>
<polygon fill="black" stroke="black" points="270.14,-432.24 260.14,-435.74 270.14,-439.24 270.14,-432.24"/>
<text text-anchor="middle" x="340.54" y="-457.54" font-family="Times,serif" font-size="14.00">21</text>
<text text-anchor="middle" x="340.54" y="-442.54" font-family="Times,serif" font-size="14.00">calls</text>
</g>
<!-- v8k script -->
<g id="node9" class="node">
<title>v8k script</title>
<ellipse fill="lightgreen" stroke="lightgreen" cx="975.44" cy="-333.74" rx="46.29" ry="18"/>
<text text-anchor="middle" x="975.44" y="-330.04" font-family="Times,serif" font-size="14.00">v8k script</text>
</g>
<!-- hello&#45;&gt;v8k script -->
<g id="edge17" class="edge">
<title>hello&#45;&gt;v8k script</title>
<path fill="none" stroke="black" d="M584.34,-426.12C667.1,-415.41 803.72,-394.22 917.44,-359.74 924.21,-357.69 931.25,-355.08 937.99,-352.33"/>
<polygon fill="black" stroke="black" points="939.76,-355.38 947.6,-348.25 937.02,-348.94 939.76,-355.38"/>
<text text-anchor="middle" x="885.94" y="-388.54" font-family="Times,serif" font-size="14.00">53</text>
<text text-anchor="middle" x="885.94" y="-373.54" font-family="Times,serif" font-size="14.00">calls</text>
</g>
<!-- babyl4 executable -->
<g id="node15" class="node">
<title>babyl4 executable</title>
<ellipse fill="hotpink" stroke="hotpink" cx="359.44" cy="-246.74" rx="74.99" ry="18"/>
<text text-anchor="middle" x="359.44" y="-243.04" font-family="Times,serif" font-size="14.00">babyl4 executable</text>
</g>
<!-- hello&#45;&gt;babyl4 executable -->
<g id="edge22" class="edge">
<title>hello&#45;&gt;babyl4 executable</title>
<path fill="none" stroke="black" d="M492.87,-418.05C487.47,-412.38 481.55,-405.92 476.44,-399.74 435.78,-350.64 434.08,-331.86 393.44,-282.74 390.36,-279.02 386.97,-275.22 383.55,-271.56"/>
<polygon fill="black" stroke="black" points="386.06,-269.12 376.61,-264.32 381,-273.96 386.06,-269.12"/>
<text text-anchor="middle" x="458.44" y="-337.54" font-family="Times,serif" font-size="14.00">54</text>
<text text-anchor="middle" x="458.44" y="-322.54" font-family="Times,serif" font-size="14.00">runs</text>
</g>
<!-- rules -->
<g id="node17" class="node">
<title>rules</title>
<ellipse fill="pink" stroke="pink" cx="561.44" cy="-246.74" rx="27.9" ry="18"/>
<text text-anchor="middle" x="561.44" y="-243.04" font-family="Times,serif" font-size="14.00">rules</text>
</g>
<!-- hello&#45;&gt;rules -->
<g id="edge29" class="edge">
<title>hello&#45;&gt;rules</title>
<path fill="none" stroke="black" d="M499.42,-417.84C485.89,-392.64 465.44,-344.29 483.44,-307.74 493.12,-288.08 512.68,-273.06 529.79,-262.97"/>
<polygon fill="black" stroke="black" points="531.92,-265.78 538.96,-257.87 528.52,-259.67 531.92,-265.78"/>
<text text-anchor="middle" x="503.94" y="-337.54" font-family="Times,serif" font-size="14.00">51</text>
<text text-anchor="middle" x="503.94" y="-322.54" font-family="Times,serif" font-size="14.00">convert</text>
</g>
<!-- shadow&#45;cljs watch app -->
<g id="node19" class="node">
<title>shadow&#45;cljs watch app</title>
<ellipse fill="pink" stroke="pink" cx="624.44" cy="-333.74" rx="90.98" ry="18"/>
<text text-anchor="middle" x="624.44" y="-330.04" font-family="Times,serif" font-size="14.00">shadow&#45;cljs watch app</text>
</g>
<!-- hello&#45;&gt;shadow&#45;cljs watch app -->
<g id="edge30" class="edge">
<title>hello&#45;&gt;shadow&#45;cljs watch app</title>
<path fill="none" stroke="black" d="M528.69,-418C547.51,-401.63 576.35,-376.56 597.45,-358.21"/>
<polygon fill="black" stroke="black" points="599.88,-360.74 605.13,-351.53 595.29,-355.45 599.88,-360.74"/>
<text text-anchor="middle" x="616.94" y="-388.54" font-family="Times,serif" font-size="14.00">52</text>
<text text-anchor="middle" x="616.94" y="-373.54" font-family="Times,serif" font-size="14.00">(re)launches</text>
</g>
<!-- legalSS spreadsheet onEdit() -->
<g id="node2" class="node">
<title>legalSS spreadsheet onEdit()</title>
<ellipse fill="none" stroke="black" cx="112.44" cy="-861.48" rx="112.38" ry="18"/>
<text text-anchor="middle" x="112.44" y="-857.78" font-family="Times,serif" font-size="14.00">legalSS spreadsheet onEdit()</text>
</g>
<!-- Code.gs -->
<g id="node3" class="node">
<title>Code.gs</title>
<ellipse fill="none" stroke="black" cx="112.44" cy="-774.48" rx="39.79" ry="18"/>
<text text-anchor="middle" x="112.44" y="-770.78" font-family="Times,serif" font-size="14.00">Code.gs</text>
</g>
<!-- legalSS spreadsheet onEdit()&#45;&gt;Code.gs -->
<g id="edge1" class="edge">
<title>legalSS spreadsheet onEdit()&#45;&gt;Code.gs</title>
<path fill="none" stroke="black" d="M112.44,-843.28C112.44,-831.64 112.44,-816.03 112.44,-802.72"/>
<polygon fill="black" stroke="black" points="115.94,-802.66 112.44,-792.66 108.94,-802.66 115.94,-802.66"/>
<text text-anchor="middle" x="141.94" y="-814.28" font-family="Times,serif" font-size="14.00">parse CSV</text>
</g>
<!-- Code.gs&#45;&gt;hello -->
<g id="edge2" class="edge">
<title>Code.gs&#45;&gt;hello</title>
<path fill="none" stroke="black" d="M129.38,-757.88C175.18,-715.88 305.71,-597.29 419.44,-504.74 438.63,-489.13 460.8,-472.36 478.33,-459.39"/>
<polygon fill="black" stroke="black" points="480.56,-462.09 486.53,-453.34 476.4,-456.46 480.56,-462.09"/>
<text text-anchor="middle" x="424.94" y="-592.54" font-family="Times,serif" font-size="14.00">11</text>
<text text-anchor="middle" x="424.94" y="-577.54" font-family="Times,serif" font-size="14.00">ships CSV (port :808x) to;</text>
<text text-anchor="middle" x="424.94" y="-562.54" font-family="Times,serif" font-size="14.00">and returns JSON from</text>
</g>
<!-- main.html\nsidebar -->
<g id="node4" class="node">
<title>main.html\nsidebar</title>
<ellipse fill="none" stroke="black" cx="712.44" cy="-648.61" rx="52.15" ry="26.74"/>
<text text-anchor="middle" x="712.44" y="-652.41" font-family="Times,serif" font-size="14.00">main.html</text>
<text text-anchor="middle" x="712.44" y="-637.41" font-family="Times,serif" font-size="14.00">sidebar</text>
</g>
<!-- Code.gs&#45;&gt;main.html\nsidebar -->
<g id="edge3" class="edge">
<title>Code.gs&#45;&gt;main.html\nsidebar</title>
<path fill="none" stroke="black" d="M147.73,-766.19C247.3,-745.64 531.13,-687.04 654.27,-661.62"/>
<polygon fill="black" stroke="black" points="655.18,-665.01 664.26,-659.56 653.76,-658.15 655.18,-665.01"/>
<text text-anchor="middle" x="540.94" y="-727.28" font-family="Times,serif" font-size="14.00">61</text>
<text text-anchor="middle" x="540.94" y="-712.28" font-family="Times,serif" font-size="14.00">fills HTML template</text>
<text text-anchor="middle" x="540.94" y="-697.28" font-family="Times,serif" font-size="14.00">with various urls</text>
</g>
<!-- various export links -->
<g id="node5" class="node">
<title>various export links</title>
<ellipse fill="none" stroke="black" cx="509.44" cy="-522.74" rx="81.49" ry="18"/>
<text text-anchor="middle" x="509.44" y="-519.04" font-family="Times,serif" font-size="14.00">various export links</text>
</g>
<!-- main.html\nsidebar&#45;&gt;various export links -->
<g id="edge4" class="edge">
<title>main.html\nsidebar&#45;&gt;various export links</title>
<path fill="none" stroke="black" d="M679.37,-627.43C642.35,-604.84 582.57,-568.37 544.68,-545.25"/>
<polygon fill="black" stroke="black" points="546.37,-542.18 536.01,-539.96 542.73,-548.15 546.37,-542.18"/>
</g>
<!-- vue web app -->
<g id="node8" class="node">
<title>vue web app</title>
<ellipse fill="lightgreen" stroke="lightgreen" cx="1095.44" cy="-333.74" rx="55.79" ry="18"/>
<text text-anchor="middle" x="1095.44" y="-330.04" font-family="Times,serif" font-size="14.00">vue web app</text>
</g>
<!-- main.html\nsidebar&#45;&gt;vue web app -->
<g id="edge18" class="edge">
<title>main.html\nsidebar&#45;&gt;vue web app</title>
<path fill="none" stroke="black" d="M739.68,-625.36C809.96,-567.94 996.89,-415.24 1067.72,-357.39"/>
<polygon fill="black" stroke="black" points="1070.23,-359.85 1075.76,-350.82 1065.8,-354.43 1070.23,-359.85"/>
<text text-anchor="middle" x="945.94" y="-475.54" font-family="Times,serif" font-size="14.00">links to</text>
</g>
<!-- web front&#45;end (clara) -->
<g id="node21" class="node">
<title>web front&#45;end (clara)</title>
<ellipse fill="pink" stroke="pink" cx="819.44" cy="-333.74" rx="85.59" ry="18"/>
<text text-anchor="middle" x="819.44" y="-330.04" font-family="Times,serif" font-size="14.00">web front&#45;end (clara)</text>
</g>
<!-- main.html\nsidebar&#45;&gt;web front&#45;end (clara) -->
<g id="edge31" class="edge">
<title>main.html\nsidebar&#45;&gt;web front&#45;end (clara)</title>
<path fill="none" stroke="black" d="M721.2,-622.01C741.16,-563.63 789.89,-421.14 810.26,-361.59"/>
<polygon fill="black" stroke="black" points="813.68,-362.39 813.61,-351.8 807.06,-360.13 813.68,-362.39"/>
<text text-anchor="middle" x="791.94" y="-475.54" font-family="Times,serif" font-size="14.00">links to</text>
</g>
<!-- various export links&#45;&gt;hello -->
<g id="edge5" class="edge">
<title>various export links&#45;&gt;hello</title>
<path fill="none" stroke="black" d="M509.44,-504.54C509.44,-492.9 509.44,-477.29 509.44,-463.98"/>
<polygon fill="black" stroke="black" points="512.94,-463.92 509.44,-453.92 505.94,-463.92 512.94,-463.92"/>
</g>
<!-- various export links&#45;&gt;static files -->
<g id="edge7" class="edge">
<title>various export links&#45;&gt;static files</title>
<path fill="none" stroke="black" d="M428.42,-520.75C328.72,-517.62 167.97,-505.68 130.44,-461.74 101.42,-427.76 147.17,-382.33 180.54,-356.02"/>
<polygon fill="black" stroke="black" points="182.9,-358.63 188.71,-349.77 178.64,-353.07 182.9,-358.63"/>
<text text-anchor="middle" x="135.94" y="-432.04" font-family="Times,serif" font-size="14.00">to</text>
</g>
<!-- dmn xml -->
<g id="node16" class="node">
<title>dmn xml</title>
<ellipse fill="hotpink" stroke="hotpink" cx="343.44" cy="-129.87" rx="43.59" ry="18"/>
<text text-anchor="middle" x="343.44" y="-126.17" font-family="Times,serif" font-size="14.00">dmn xml</text>
</g>
<!-- static files&#45;&gt;dmn xml -->
<g id="edge23" class="edge">
<title>static files&#45;&gt;dmn xml</title>
<path fill="none" stroke="black" stroke-dasharray="1,5" d="M210.15,-315.72C210.51,-294.09 213.63,-256.28 229.44,-228.74 250.86,-191.41 292.03,-161.54 318.59,-145.03"/>
<text text-anchor="middle" x="252.44" y="-243.04" font-family="Times,serif" font-size="14.00">includes</text>
</g>
<!-- natural4&#45;exe&#45;&gt;hello -->
<g id="edge10" class="edge">
<title>natural4&#45;exe&#45;&gt;hello</title>
<path fill="none" stroke="black" d="M260.14,-435.74C301.96,-435.74 360.73,-435.74 410.71,-435.74"/>
<polygon fill="black" stroke="black" points="410.91,-439.24 420.91,-435.74 410.91,-432.24 410.91,-439.24"/>
<text text-anchor="middle" x="340.54" y="-442.54" font-family="Times,serif" font-size="14.00">41returns after succeeding</text>
</g>
<!-- natural4&#45;exe&#45;&gt;static files -->
<g id="edge8" class="edge">
<title>natural4&#45;exe&#45;&gt;static files</title>
<path fill="none" stroke="black" d="M206.31,-417.32C207.07,-402.12 208.19,-379.81 209.07,-362.2"/>
<polygon fill="black" stroke="black" points="212.58,-362.12 209.58,-351.96 205.58,-361.77 212.58,-362.12"/>
<text text-anchor="middle" x="232.94" y="-381.04" font-family="Times,serif" font-size="14.00">produces</text>
</g>
<!-- corel4 file -->
<g id="node14" class="node">
<title>corel4 file</title>
<ellipse fill="hotpink" stroke="hotpink" cx="331.44" cy="-333.74" rx="46.59" ry="18"/>
<text text-anchor="middle" x="331.44" y="-330.04" font-family="Times,serif" font-size="14.00">corel4 file</text>
</g>
<!-- natural4&#45;exe&#45;&gt;corel4 file -->
<g id="edge21" class="edge">
<title>natural4&#45;exe&#45;&gt;corel4 file</title>
<path fill="none" stroke="black" d="M231.49,-419.87C241.17,-413.99 252.06,-406.92 261.44,-399.74 278.06,-387.01 295.31,-371.03 308.53,-358.1"/>
<polygon fill="black" stroke="black" points="311.17,-360.42 315.81,-350.89 306.24,-355.44 311.17,-360.42"/>
<text text-anchor="middle" x="314.44" y="-388.54" font-family="Times,serif" font-size="14.00">31</text>
<text text-anchor="middle" x="314.44" y="-373.54" font-family="Times,serif" font-size="14.00">outputs</text>
</g>
<!-- vue&#39;s npm run serve -->
<g id="node10" class="node">
<title>vue&#39;s npm run serve</title>
<ellipse fill="lightgreen" stroke="lightgreen" cx="1069.44" cy="-246.74" rx="81.79" ry="18"/>
<text text-anchor="middle" x="1069.44" y="-243.04" font-family="Times,serif" font-size="14.00">vue&#39;s npm run serve</text>
</g>
<!-- vue web app&#45;&gt;vue&#39;s npm run serve -->
<g id="edge11" class="edge">
<title>vue web app&#45;&gt;vue&#39;s npm run serve</title>
<path fill="none" stroke="black" d="M1090.18,-315.54C1086.58,-303.79 1081.75,-287.98 1077.65,-274.58"/>
<polygon fill="black" stroke="black" points="1080.97,-273.45 1074.69,-264.92 1074.27,-275.5 1080.97,-273.45"/>
<text text-anchor="middle" x="1109.94" y="-286.54" font-family="Times,serif" font-size="14.00">served by</text>
</g>
<!-- v8k script&#45;&gt;vue&#39;s npm run serve -->
<g id="edge12" class="edge">
<title>v8k script&#45;&gt;vue&#39;s npm run serve</title>
<path fill="none" stroke="black" d="M991.55,-316.67C1001.68,-306.72 1015.12,-293.77 1027.44,-282.74 1031.88,-278.77 1036.67,-274.63 1041.37,-270.66"/>
<polygon fill="black" stroke="black" points="1043.68,-273.29 1049.11,-264.19 1039.19,-267.92 1043.68,-273.29"/>
<text text-anchor="middle" x="1051.94" y="-286.54" font-family="Times,serif" font-size="14.00">manages</text>
</g>
<!-- the latest purescript -->
<g id="node12" class="node">
<title>the latest purescript</title>
<ellipse fill="lightgreen" stroke="lightgreen" cx="1009.44" cy="-192.74" rx="79.89" ry="18"/>
<text text-anchor="middle" x="1009.44" y="-189.04" font-family="Times,serif" font-size="14.00">the latest purescript</text>
</g>
<!-- v8k script&#45;&gt;the latest purescript -->
<g id="edge13" class="edge">
<title>v8k script&#45;&gt;the latest purescript</title>
<path fill="none" stroke="black" d="M972.04,-315.63C968.64,-294.25 965.58,-257.02 978.44,-228.74 980.09,-225.1 982.26,-221.57 984.67,-218.24"/>
<polygon fill="black" stroke="black" points="987.45,-220.38 991.06,-210.42 982.02,-215.95 987.45,-220.38"/>
<text text-anchor="middle" x="986.94" y="-286.54" font-family="Times,serif" font-size="14.00">copies</text>
</g>
<!-- in dev mode\nwith hot reloading -->
<g id="node11" class="node">
<title>in dev mode\nwith hot reloading</title>
<ellipse fill="lightgreen" stroke="lightgreen" cx="1069.44" cy="-129.87" rx="82.05" ry="26.74"/>
<text text-anchor="middle" x="1069.44" y="-133.67" font-family="Times,serif" font-size="14.00">in dev mode</text>
<text text-anchor="middle" x="1069.44" y="-118.67" font-family="Times,serif" font-size="14.00">with hot reloading</text>
</g>
<!-- vue&#39;s npm run serve&#45;&gt;in dev mode\nwith hot reloading -->
<g id="edge15" class="edge">
<title>vue&#39;s npm run serve&#45;&gt;in dev mode\nwith hot reloading</title>
<path fill="none" stroke="black" stroke-dasharray="1,5" d="M1082.11,-228.79C1085.5,-223.31 1088.7,-217.02 1090.44,-210.74 1094.71,-195.32 1093.98,-190.34 1090.44,-174.74 1089.79,-171.88 1088.93,-169 1087.93,-166.14"/>
<polygon fill="black" stroke="black" points="1091.08,-164.59 1084.09,-156.62 1084.59,-167.21 1091.08,-164.59"/>
</g>
<!-- purs file on disk -->
<g id="node13" class="node">
<title>purs file on disk</title>
<ellipse fill="lightgreen" stroke="lightgreen" cx="1033.44" cy="-34" rx="68.49" ry="18"/>
<text text-anchor="middle" x="1033.44" y="-30.3" font-family="Times,serif" font-size="14.00">purs file on disk</text>
</g>
<!-- in dev mode\nwith hot reloading&#45;&gt;purs file on disk -->
<g id="edge16" class="edge">
<title>in dev mode\nwith hot reloading&#45;&gt;purs file on disk</title>
<path fill="none" stroke="black" d="M1059.51,-102.97C1054.53,-90 1048.52,-74.32 1043.52,-61.29"/>
<polygon fill="black" stroke="black" points="1046.78,-60.02 1039.94,-51.94 1040.25,-62.53 1046.78,-60.02"/>
<text text-anchor="middle" x="1066.94" y="-73.8" font-family="Times,serif" font-size="14.00">reads</text>
</g>
<!-- the latest purescript&#45;&gt;purs file on disk -->
<g id="edge14" class="edge">
<title>the latest purescript&#45;&gt;purs file on disk</title>
<path fill="none" stroke="black" d="M983.06,-175.72C976.78,-170.51 970.9,-164.13 967.44,-156.74 957.31,-135.11 958.46,-125.13 967.44,-103 974.68,-85.16 989.09,-69.42 1002.6,-57.59"/>
<polygon fill="black" stroke="black" points="1004.96,-60.18 1010.4,-51.09 1000.48,-54.8 1004.96,-60.18"/>
<text text-anchor="middle" x="972.94" y="-126.17" font-family="Times,serif" font-size="14.00">to</text>
</g>
<!-- corel4 file&#45;&gt;babyl4 executable -->
<g id="edge20" class="edge">
<title>corel4 file&#45;&gt;babyl4 executable</title>
<path fill="none" stroke="black" d="M337.11,-315.54C340.98,-303.79 346.19,-287.98 350.6,-274.58"/>
<polygon fill="black" stroke="black" points="353.98,-275.51 353.78,-264.92 347.33,-273.32 353.98,-275.51"/>
<text text-anchor="middle" x="367.94" y="-286.54" font-family="Times,serif" font-size="14.00">input to</text>
</g>
<!-- babyl4 executable&#45;&gt;dmn xml -->
<g id="edge19" class="edge">
<title>babyl4 executable&#45;&gt;dmn xml</title>
<path fill="none" stroke="black" d="M357.01,-228.29C354.41,-209.63 350.25,-179.79 347.22,-158.04"/>
<polygon fill="black" stroke="black" points="350.69,-157.53 345.84,-148.1 343.75,-158.49 350.69,-157.53"/>
<text text-anchor="middle" x="379.44" y="-189.04" font-family="Times,serif" font-size="14.00">generates</text>
</g>
<!-- clara format -->
<g id="node18" class="node">
<title>clara format</title>
<ellipse fill="pink" stroke="pink" cx="625.44" cy="-129.87" rx="53.89" ry="18"/>
<text text-anchor="middle" x="625.44" y="-126.17" font-family="Times,serif" font-size="14.00">clara format</text>
</g>
<!-- rules&#45;&gt;clara format -->
<g id="edge24" class="edge">
<title>rules&#45;&gt;clara format</title>
<path fill="none" stroke="black" d="M570.61,-229.28C581.19,-210.28 598.73,-178.8 611.12,-156.57"/>
<polygon fill="black" stroke="black" points="614.27,-158.11 616.08,-147.67 608.15,-154.7 614.27,-158.11"/>
<text text-anchor="middle" x="603.94" y="-189.04" font-family="Times,serif" font-size="14.00">to</text>
</g>
<!-- shadow&#45;cljs watch app&#45;&gt;clara format -->
<g id="edge25" class="edge">
<title>shadow&#45;cljs watch app&#45;&gt;clara format</title>
<path fill="none" stroke="black" d="M624.53,-315.53C624.7,-280.44 625.1,-200.41 625.3,-158.16"/>
<polygon fill="black" stroke="black" points="628.81,-158.06 625.35,-148.04 621.81,-158.02 628.81,-158.06"/>
<text text-anchor="middle" x="646.44" y="-243.04" font-family="Times,serif" font-size="14.00">watches</text>
</g>
<!-- clara engine -->
<g id="node20" class="node">
<title>clara engine</title>
<ellipse fill="pink" stroke="pink" cx="741.44" cy="-246.74" rx="53.89" ry="18"/>
<text text-anchor="middle" x="741.44" y="-243.04" font-family="Times,serif" font-size="14.00">clara engine</text>
</g>
<!-- shadow&#45;cljs watch app&#45;&gt;clara engine -->
<g id="edge26" class="edge">
<title>shadow&#45;cljs watch app&#45;&gt;clara engine</title>
<path fill="none" stroke="black" d="M647.28,-316.15C665.66,-302.79 691.65,-283.91 711.67,-269.37"/>
<polygon fill="black" stroke="black" points="713.81,-272.14 719.85,-263.43 709.7,-266.47 713.81,-272.14"/>
<text text-anchor="middle" x="713.94" y="-286.54" font-family="Times,serif" font-size="14.00">manages</text>
</g>
<!-- clara engine&#45;&gt;clara format -->
<g id="edge27" class="edge">
<title>clara engine&#45;&gt;clara format</title>
<path fill="none" stroke="black" d="M724.82,-229.28C705.01,-209.66 671.76,-176.73 649.22,-154.42"/>
<polygon fill="black" stroke="black" points="651.6,-151.85 642.03,-147.3 646.67,-156.82 651.6,-151.85"/>
<text text-anchor="middle" x="717.94" y="-189.04" font-family="Times,serif" font-size="14.00">reads</text>
</g>
<!-- web front&#45;end (clara)&#45;&gt;clara engine -->
<g id="edge28" class="edge">
<title>web front&#45;end (clara)&#45;&gt;clara engine</title>
<path fill="none" stroke="black" d="M804.03,-315.95C792.42,-303.29 776.33,-285.77 763.38,-271.65"/>
<polygon fill="black" stroke="black" points="765.89,-269.21 756.55,-264.21 760.74,-273.94 765.89,-269.21"/>
<text text-anchor="middle" x="810.94" y="-286.54" font-family="Times,serif" font-size="14.00">served by</text>
</g>
</g>
</svg>
