<?xml version="1.0" encoding="UTF-8" standalone="no"?>
<!DOCTYPE svg PUBLIC "-//W3C//DTD SVG 1.1//EN"
 "http://www.w3.org/Graphics/SVG/1.1/DTD/svg11.dtd">
<!-- Generated by graphviz version 2.43.0 (0)
 -->
<!-- Title: %3 Pages: 1 -->
<svg width="945pt" height="827pt"
 viewBox="0.00 0.00 945.00 827.48" xmlns="http://www.w3.org/2000/svg" xmlns:xlink="http://www.w3.org/1999/xlink">
<g id="graph0" class="graph" transform="scale(1 1) rotate(0) translate(4 823.48)">
<title>%3</title>
<polygon fill="white" stroke="transparent" points="-4,4 -4,-823.48 941,-823.48 941,4 -4,4"/>
<g id="clust1" class="cluster">
<title>cluster_natural4</title>
<polygon fill="lightgrey" stroke="lightgrey" points="8,-307.74 8,-461.74 134,-461.74 134,-307.74 8,-307.74"/>
</g>
<g id="clust2" class="cluster">
<title>cluster_vue</title>
<polygon fill="lightgrey" stroke="lightgrey" points="254,-8 254,-359.74 492,-359.74 492,-8 254,-8"/>
</g>
<g id="clust3" class="cluster">
<title>cluster_new</title>
<polygon fill="lightgrey" stroke="lightgrey" points="531,-220.74 531,-461.74 929,-461.74 929,-220.74 531,-220.74"/>
</g>
<!-- legalSS spreadsheet onEdit() -->
<g id="node1" class="node">
<title>legalSS spreadsheet onEdit()</title>
<ellipse fill="none" stroke="black" cx="439" cy="-801.48" rx="112.38" ry="18"/>
<text text-anchor="middle" x="439" y="-797.78" font-family="Times,serif" font-size="14.00">legalSS spreadsheet onEdit()</text>
</g>
<!-- Code.gs -->
<g id="node2" class="node">
<title>Code.gs</title>
<ellipse fill="none" stroke="black" cx="439" cy="-714.48" rx="39.79" ry="18"/>
<text text-anchor="middle" x="439" y="-710.78" font-family="Times,serif" font-size="14.00">Code.gs</text>
</g>
<!-- legalSS spreadsheet onEdit()&#45;&gt;Code.gs -->
<g id="edge1" class="edge">
<title>legalSS spreadsheet onEdit()&#45;&gt;Code.gs</title>
<path fill="none" stroke="black" d="M439,-783.28C439,-771.64 439,-756.03 439,-742.72"/>
<polygon fill="black" stroke="black" points="442.5,-742.66 439,-732.66 435.5,-742.66 442.5,-742.66"/>
<text text-anchor="middle" x="468.5" y="-754.28" font-family="Times,serif" font-size="14.00">parse CSV</text>
</g>
<!-- gsheet/pyrest/hello.py -->
<g id="node3" class="node">
<title>gsheet/pyrest/hello.py</title>
<ellipse fill="none" stroke="black" cx="435" cy="-435.74" rx="88.28" ry="18"/>
<text text-anchor="middle" x="435" y="-432.04" font-family="Times,serif" font-size="14.00">gsheet/pyrest/hello.py</text>
</g>
<!-- Code.gs&#45;&gt;gsheet/pyrest/hello.py -->
<g id="edge2" class="edge">
<title>Code.gs&#45;&gt;gsheet/pyrest/hello.py</title>
<path fill="none" stroke="black" d="M468.37,-702.3C478.69,-696.79 489.16,-689.01 495,-678.48 532.43,-610.94 522.31,-576.97 495,-504.74 488.54,-487.67 475.63,-472.11 463.43,-460.2"/>
<polygon fill="black" stroke="black" points="465.7,-457.53 455.99,-453.27 460.93,-462.65 465.7,-457.53"/>
<text text-anchor="middle" x="552.5" y="-562.54" font-family="Times,serif" font-size="14.00">ships CSV to</text>
</g>
<!-- main.html\nsidebar -->
<g id="node4" class="node">
<title>main.html\nsidebar</title>
<ellipse fill="none" stroke="black" cx="374" cy="-618.61" rx="52.15" ry="26.74"/>
<text text-anchor="middle" x="374" y="-622.41" font-family="Times,serif" font-size="14.00">main.html</text>
<text text-anchor="middle" x="374" y="-607.41" font-family="Times,serif" font-size="14.00">sidebar</text>
</g>
<!-- Code.gs&#45;&gt;main.html\nsidebar -->
<g id="edge3" class="edge">
<title>Code.gs&#45;&gt;main.html\nsidebar</title>
<path fill="none" stroke="black" d="M405.18,-704.74C391.81,-699.45 377.8,-691.19 370,-678.48 365.78,-671.61 364.53,-663.39 364.83,-655.31"/>
<polygon fill="black" stroke="black" points="368.32,-655.58 365.93,-645.25 361.36,-654.82 368.32,-655.58"/>
<text text-anchor="middle" x="432.5" y="-667.28" font-family="Times,serif" font-size="14.00">produce HTML output</text>
</g>
<!-- static files -->
<g id="node6" class="node">
<title>static files</title>
<ellipse fill="lightblue" stroke="lightblue" cx="79" cy="-333.74" rx="46.59" ry="18"/>
<text text-anchor="middle" x="79" y="-330.04" font-family="Times,serif" font-size="14.00">static files</text>
</g>
<!-- gsheet/pyrest/hello.py&#45;&gt;static files -->
<g id="edge6" class="edge">
<title>gsheet/pyrest/hello.py&#45;&gt;static files</title>
<path fill="none" stroke="black" d="M385.12,-420.73C316.14,-401.35 192.54,-366.63 125.43,-347.78"/>
<polygon fill="black" stroke="black" points="126.13,-344.34 115.56,-345.01 124.24,-351.08 126.13,-344.34"/>
<text text-anchor="middle" x="326" y="-381.04" font-family="Times,serif" font-size="14.00">serves</text>
</g>
<!-- natural4&#45;exe -->
<g id="node7" class="node">
<title>natural4&#45;exe</title>
<ellipse fill="lightblue" stroke="lightblue" cx="71" cy="-435.74" rx="54.69" ry="18"/>
<text text-anchor="middle" x="71" y="-432.04" font-family="Times,serif" font-size="14.00">natural4&#45;exe</text>
</g>
<!-- gsheet/pyrest/hello.py&#45;&gt;natural4&#45;exe -->
<g id="edge9" class="edge">
<title>gsheet/pyrest/hello.py&#45;&gt;natural4&#45;exe</title>
<path fill="none" stroke="black" d="M383.43,-450.45C367.38,-454.6 349.55,-458.79 333,-461.74 214.93,-482.77 161.65,-483.72 143.5,-478.74 128.4,-474.6 113.25,-466.4 100.74,-458.27"/>
<polygon fill="black" stroke="black" points="102.37,-455.14 92.13,-452.42 98.43,-460.93 102.37,-455.14"/>
<text text-anchor="middle" x="156" y="-475.54" font-family="Times,serif" font-size="14.00">calls</text>
</g>
<!-- v8k script -->
<g id="node9" class="node">
<title>v8k script</title>
<ellipse fill="lightgreen" stroke="lightgreen" cx="438" cy="-333.74" rx="46.29" ry="18"/>
<text text-anchor="middle" x="438" y="-330.04" font-family="Times,serif" font-size="14.00">v8k script</text>
</g>
<!-- gsheet/pyrest/hello.py&#45;&gt;v8k script -->
<g id="edge17" class="edge">
<title>gsheet/pyrest/hello.py&#45;&gt;v8k script</title>
<path fill="none" stroke="black" d="M435.52,-417.32C435.98,-402.12 436.65,-379.81 437.18,-362.2"/>
<polygon fill="black" stroke="black" points="440.68,-362.06 437.48,-351.96 433.69,-361.85 440.68,-362.06"/>
<text text-anchor="middle" x="448.5" y="-381.04" font-family="Times,serif" font-size="14.00">calls</text>
</g>
<!-- rules -->
<g id="node14" class="node">
<title>rules</title>
<ellipse fill="pink" stroke="pink" cx="567" cy="-333.74" rx="27.9" ry="18"/>
<text text-anchor="middle" x="567" y="-330.04" font-family="Times,serif" font-size="14.00">rules</text>
</g>
<!-- gsheet/pyrest/hello.py&#45;&gt;rules -->
<g id="edge23" class="edge">
<title>gsheet/pyrest/hello.py&#45;&gt;rules</title>
<path fill="none" stroke="black" d="M456.8,-418.23C479.99,-400.66 516.65,-372.89 541.24,-354.25"/>
<polygon fill="black" stroke="black" points="543.54,-356.9 549.4,-348.07 539.31,-351.32 543.54,-356.9"/>
<text text-anchor="middle" x="540.5" y="-388.54" font-family="Times,serif" font-size="14.00">1</text>
<text text-anchor="middle" x="540.5" y="-373.54" font-family="Times,serif" font-size="14.00">convert</text>
</g>
<!-- shadow&#45;cljs watch app -->
<g id="node16" class="node">
<title>shadow&#45;cljs watch app</title>
<ellipse fill="pink" stroke="pink" cx="704" cy="-333.74" rx="90.98" ry="18"/>
<text text-anchor="middle" x="704" y="-330.04" font-family="Times,serif" font-size="14.00">shadow&#45;cljs watch app</text>
</g>
<!-- gsheet/pyrest/hello.py&#45;&gt;shadow&#45;cljs watch app -->
<g id="edge24" class="edge">
<title>gsheet/pyrest/hello.py&#45;&gt;shadow&#45;cljs watch app</title>
<path fill="none" stroke="black" d="M491.34,-421.86C514.45,-415.98 541.29,-408.4 565,-399.74 599.47,-387.15 637.09,-369.29 664.49,-355.47"/>
<polygon fill="black" stroke="black" points="666.41,-358.42 673.74,-350.77 663.24,-352.18 666.41,-358.42"/>
<text text-anchor="middle" x="667.5" y="-388.54" font-family="Times,serif" font-size="14.00">2</text>
<text text-anchor="middle" x="667.5" y="-373.54" font-family="Times,serif" font-size="14.00">(re)launches</text>
</g>
<!-- various export links -->
<g id="node5" class="node">
<title>various export links</title>
<ellipse fill="none" stroke="black" cx="268" cy="-522.74" rx="81.49" ry="18"/>
<text text-anchor="middle" x="268" y="-519.04" font-family="Times,serif" font-size="14.00">various export links</text>
</g>
<!-- main.html\nsidebar&#45;&gt;various export links -->
<g id="edge4" class="edge">
<title>main.html\nsidebar&#45;&gt;various export links</title>
<path fill="none" stroke="black" d="M348.34,-594.89C332.02,-580.43 310.93,-561.76 294.45,-547.17"/>
<polygon fill="black" stroke="black" points="296.59,-544.38 286.78,-540.37 291.95,-549.62 296.59,-544.38"/>
</g>
<!-- vue web app -->
<g id="node8" class="node">
<title>vue web app</title>
<ellipse fill="lightgreen" stroke="lightgreen" cx="318" cy="-333.74" rx="55.79" ry="18"/>
<text text-anchor="middle" x="318" y="-330.04" font-family="Times,serif" font-size="14.00">vue web app</text>
</g>
<!-- main.html\nsidebar&#45;&gt;vue web app -->
<g id="edge18" class="edge">
<title>main.html\nsidebar&#45;&gt;vue web app</title>
<path fill="none" stroke="black" d="M372.49,-591.6C370.64,-568.42 366.6,-533.77 358,-504.74 352.01,-484.53 344.14,-481.9 338,-461.74 327.81,-428.3 322.6,-388.24 320.09,-362.18"/>
<polygon fill="black" stroke="black" points="323.56,-361.57 319.18,-351.92 316.58,-362.2 323.56,-361.57"/>
<text text-anchor="middle" x="368" y="-475.54" font-family="Times,serif" font-size="14.00">link to</text>
</g>
<!-- web front&#45;end (clara) -->
<g id="node18" class="node">
<title>web front&#45;end (clara)</title>
<ellipse fill="pink" stroke="pink" cx="748" cy="-435.74" rx="85.59" ry="18"/>
<text text-anchor="middle" x="748" y="-432.04" font-family="Times,serif" font-size="14.00">web front&#45;end (clara)</text>
</g>
<!-- main.html\nsidebar&#45;&gt;web front&#45;end (clara) -->
<g id="edge25" class="edge">
<title>main.html\nsidebar&#45;&gt;web front&#45;end (clara)</title>
<path fill="none" stroke="black" d="M409.43,-598.66C431.59,-586.92 460.82,-571.67 487,-558.74 562.78,-521.31 652.24,-480.14 704.3,-456.47"/>
<polygon fill="black" stroke="black" points="705.92,-459.58 713.57,-452.26 703.02,-453.21 705.92,-459.58"/>
<text text-anchor="middle" x="617.5" y="-526.54" font-family="Times,serif" font-size="14.00">3</text>
<text text-anchor="middle" x="617.5" y="-511.54" font-family="Times,serif" font-size="14.00">links to</text>
</g>
<!-- various export links&#45;&gt;gsheet/pyrest/hello.py -->
<g id="edge5" class="edge">
<title>various export links&#45;&gt;gsheet/pyrest/hello.py</title>
<path fill="none" stroke="black" d="M296.23,-505.73C317.95,-493.47 346.19,-477.69 358,-471.74 368.14,-466.63 379.18,-461.41 389.65,-456.62"/>
<polygon fill="black" stroke="black" points="391.4,-459.67 399.06,-452.35 388.51,-453.29 391.4,-459.67"/>
</g>
<!-- various export links&#45;&gt;static files -->
<g id="edge7" class="edge">
<title>various export links&#45;&gt;static files</title>
<path fill="none" stroke="black" d="M228.39,-506.88C217.71,-501.62 206.72,-494.93 198,-486.74 154.16,-445.57 170.9,-413.83 130,-369.74 124.93,-364.27 118.86,-359.2 112.7,-354.7"/>
<polygon fill="black" stroke="black" points="114.56,-351.73 104.34,-348.95 110.59,-357.5 114.56,-351.73"/>
<text text-anchor="middle" x="183.5" y="-432.04" font-family="Times,serif" font-size="14.00">to</text>
</g>
<!-- natural4&#45;exe&#45;&gt;gsheet/pyrest/hello.py -->
<g id="edge10" class="edge">
<title>natural4&#45;exe&#45;&gt;gsheet/pyrest/hello.py</title>
<path fill="none" stroke="black" d="M103.93,-450.1C129.35,-460.37 165.68,-473.29 199,-478.74 256.02,-488.06 272.29,-489.8 329,-478.74 351.01,-474.45 374.23,-465.57 393.3,-457"/>
<polygon fill="black" stroke="black" points="394.99,-460.08 402.59,-452.7 392.05,-453.72 394.99,-460.08"/>
<text text-anchor="middle" x="264" y="-475.54" font-family="Times,serif" font-size="14.00">returns after succeeding</text>
</g>
<!-- natural4&#45;exe&#45;&gt;static files -->
<g id="edge8" class="edge">
<title>natural4&#45;exe&#45;&gt;static files</title>
<path fill="none" stroke="black" d="M72.39,-417.32C73.61,-402.12 75.39,-379.81 76.8,-362.2"/>
<polygon fill="black" stroke="black" points="80.31,-362.21 77.62,-351.96 73.34,-361.65 80.31,-362.21"/>
<text text-anchor="middle" x="101.5" y="-381.04" font-family="Times,serif" font-size="14.00">produces</text>
</g>
<!-- vue&#39;s npm run serve -->
<g id="node10" class="node">
<title>vue&#39;s npm run serve</title>
<ellipse fill="lightgreen" stroke="lightgreen" cx="344" cy="-246.74" rx="81.79" ry="18"/>
<text text-anchor="middle" x="344" y="-243.04" font-family="Times,serif" font-size="14.00">vue&#39;s npm run serve</text>
</g>
<!-- vue web app&#45;&gt;vue&#39;s npm run serve -->
<g id="edge11" class="edge">
<title>vue web app&#45;&gt;vue&#39;s npm run serve</title>
<path fill="none" stroke="black" d="M305.42,-316.18C299.51,-306.27 294.79,-293.54 300,-282.74 302.11,-278.36 305.08,-274.35 308.47,-270.74"/>
<polygon fill="black" stroke="black" points="310.92,-273.25 315.93,-263.91 306.19,-268.09 310.92,-273.25"/>
<text text-anchor="middle" x="326.5" y="-286.54" font-family="Times,serif" font-size="14.00">served by</text>
</g>
<!-- v8k script&#45;&gt;vue&#39;s npm run serve -->
<g id="edge12" class="edge">
<title>v8k script&#45;&gt;vue&#39;s npm run serve</title>
<path fill="none" stroke="black" d="M408.26,-319.72C397.32,-314.01 385.34,-306.57 376,-297.74 368.74,-290.87 362.39,-282.04 357.3,-273.71"/>
<polygon fill="black" stroke="black" points="360.31,-271.92 352.29,-264.99 354.24,-275.4 360.31,-271.92"/>
<text text-anchor="middle" x="400.5" y="-286.54" font-family="Times,serif" font-size="14.00">manages</text>
</g>
<!-- the latest purescript -->
<g id="node12" class="node">
<title>the latest purescript</title>
<ellipse fill="lightgreen" stroke="lightgreen" cx="404" cy="-192.74" rx="79.89" ry="18"/>
<text text-anchor="middle" x="404" y="-189.04" font-family="Times,serif" font-size="14.00">the latest purescript</text>
</g>
<!-- v8k script&#45;&gt;the latest purescript -->
<g id="edge13" class="edge">
<title>v8k script&#45;&gt;the latest purescript</title>
<path fill="none" stroke="black" d="M441.65,-315.45C445.59,-292.56 449.51,-251.53 435,-220.74 434.6,-219.89 434.16,-219.06 433.69,-218.25"/>
<polygon fill="black" stroke="black" points="436.35,-215.97 427.48,-210.17 430.8,-220.24 436.35,-215.97"/>
<text text-anchor="middle" x="462.5" y="-286.54" font-family="Times,serif" font-size="14.00">copies</text>
</g>
<!-- in dev mode\nwith hot reloading -->
<g id="node11" class="node">
<title>in dev mode\nwith hot reloading</title>
<ellipse fill="lightgreen" stroke="lightgreen" cx="344" cy="-129.87" rx="82.05" ry="26.74"/>
<text text-anchor="middle" x="344" y="-133.67" font-family="Times,serif" font-size="14.00">in dev mode</text>
<text text-anchor="middle" x="344" y="-118.67" font-family="Times,serif" font-size="14.00">with hot reloading</text>
</g>
<!-- vue&#39;s npm run serve&#45;&gt;in dev mode\nwith hot reloading -->
<g id="edge15" class="edge">
<title>vue&#39;s npm run serve&#45;&gt;in dev mode\nwith hot reloading</title>
<path fill="none" stroke="black" stroke-dasharray="1,5" d="M331.33,-228.79C327.94,-223.31 324.74,-217.02 323,-210.74 318.73,-195.32 319.46,-190.34 323,-174.74 323.65,-171.88 324.51,-169 325.51,-166.14"/>
<polygon fill="black" stroke="black" points="328.85,-167.21 329.35,-156.62 322.36,-164.59 328.85,-167.21"/>
</g>
<!-- purs file on disk -->
<g id="node13" class="node">
<title>purs file on disk</title>
<ellipse fill="lightgreen" stroke="lightgreen" cx="380" cy="-34" rx="68.49" ry="18"/>
<text text-anchor="middle" x="380" y="-30.3" font-family="Times,serif" font-size="14.00">purs file on disk</text>
</g>
<!-- in dev mode\nwith hot reloading&#45;&gt;purs file on disk -->
<g id="edge16" class="edge">
<title>in dev mode\nwith hot reloading&#45;&gt;purs file on disk</title>
<path fill="none" stroke="black" d="M353.93,-102.97C358.91,-90 364.92,-74.32 369.92,-61.29"/>
<polygon fill="black" stroke="black" points="373.19,-62.53 373.5,-51.94 366.66,-60.02 373.19,-62.53"/>
<text text-anchor="middle" x="380.5" y="-73.8" font-family="Times,serif" font-size="14.00">reads</text>
</g>
<!-- the latest purescript&#45;&gt;purs file on disk -->
<g id="edge14" class="edge">
<title>the latest purescript&#45;&gt;purs file on disk</title>
<path fill="none" stroke="black" d="M423.26,-174.93C428.01,-169.64 432.47,-163.42 435,-156.74 443.47,-134.41 442.97,-125.52 435,-103 429.1,-86.33 417.18,-70.75 405.94,-58.72"/>
<polygon fill="black" stroke="black" points="408.23,-56.05 398.73,-51.35 403.23,-60.94 408.23,-56.05"/>
<text text-anchor="middle" x="446.5" y="-126.17" font-family="Times,serif" font-size="14.00">to</text>
</g>
<!-- clara format -->
<g id="node15" class="node">
<title>clara format</title>
<ellipse fill="pink" stroke="pink" cx="704" cy="-246.74" rx="53.89" ry="18"/>
<text text-anchor="middle" x="704" y="-243.04" font-family="Times,serif" font-size="14.00">clara format</text>
</g>
<!-- rules&#45;&gt;clara format -->
<g id="edge19" class="edge">
<title>rules&#45;&gt;clara format</title>
<path fill="none" stroke="black" d="M585.31,-320.08C591.23,-316.07 597.85,-311.66 604,-307.74 625.52,-294.03 650.09,-279.27 669.49,-267.83"/>
<polygon fill="black" stroke="black" points="671.44,-270.74 678.29,-262.66 667.89,-264.71 671.44,-270.74"/>
<text text-anchor="middle" x="647.5" y="-286.54" font-family="Times,serif" font-size="14.00">to</text>
</g>
<!-- shadow&#45;cljs watch app&#45;&gt;clara format -->
<g id="edge20" class="edge">
<title>shadow&#45;cljs watch app&#45;&gt;clara format</title>
<path fill="none" stroke="black" d="M704,-315.54C704,-303.9 704,-288.29 704,-274.98"/>
<polygon fill="black" stroke="black" points="707.5,-274.92 704,-264.92 700.5,-274.92 707.5,-274.92"/>
<text text-anchor="middle" x="728.5" y="-286.54" font-family="Times,serif" font-size="14.00">monitors</text>
</g>
<!-- clara engine -->
<g id="node17" class="node">
<title>clara engine</title>
<ellipse fill="pink" stroke="pink" cx="867" cy="-333.74" rx="53.89" ry="18"/>
<text text-anchor="middle" x="867" y="-330.04" font-family="Times,serif" font-size="14.00">clara engine</text>
</g>
<!-- clara engine&#45;&gt;clara format -->
<g id="edge21" class="edge">
<title>clara engine&#45;&gt;clara format</title>
<path fill="none" stroke="black" d="M838.98,-318.13C811.96,-304.04 770.89,-282.62 741.15,-267.11"/>
<polygon fill="black" stroke="black" points="742.41,-263.82 731.93,-262.3 739.18,-270.03 742.41,-263.82"/>
<text text-anchor="middle" x="809.5" y="-286.54" font-family="Times,serif" font-size="14.00">reads</text>
</g>
<!-- web front&#45;end (clara)&#45;&gt;clara engine -->
<g id="edge22" class="edge">
<title>web front&#45;end (clara)&#45;&gt;clara engine</title>
<path fill="none" stroke="black" d="M767.92,-418C787.72,-401.36 818.22,-375.73 840.15,-357.3"/>
<polygon fill="black" stroke="black" points="842.4,-359.98 847.81,-350.87 837.9,-354.62 842.4,-359.98"/>
<text text-anchor="middle" x="851.5" y="-388.54" font-family="Times,serif" font-size="14.00">4</text>
<text text-anchor="middle" x="851.5" y="-373.54" font-family="Times,serif" font-size="14.00">served by</text>
</g>
</g>
</svg>
