<?xml version="1.0" encoding="UTF-8" standalone="no"?>
<!DOCTYPE svg PUBLIC "-//W3C//DTD SVG 1.1//EN"
 "http://www.w3.org/Graphics/SVG/1.1/DTD/svg11.dtd">
<!-- Generated by graphviz version 2.43.0 (0)
 -->
<!-- Title: %3 Pages: 1 -->
<svg width="1017pt" height="842pt"
 viewBox="0.00 0.00 1017.00 842.48" xmlns="http://www.w3.org/2000/svg" xmlns:xlink="http://www.w3.org/1999/xlink">
<g id="graph0" class="graph" transform="scale(1 1) rotate(0) translate(4 838.48)">
<title>%3</title>
<polygon fill="white" stroke="transparent" points="-4,4 -4,-838.48 1013,-838.48 1013,4 -4,4"/>
<g id="clust1" class="cluster">
<title>cluster_natural4</title>
<polygon fill="lightgrey" stroke="lightgrey" points="8,-307.74 8,-461.74 134,-461.74 134,-307.74 8,-307.74"/>
</g>
<g id="clust2" class="cluster">
<title>cluster_vue</title>
<polygon fill="lightgrey" stroke="lightgrey" points="357,-8 357,-359.74 595,-359.74 595,-8 357,-8"/>
</g>
<g id="clust3" class="cluster">
<title>cluster_dmn</title>
<polygon fill="lightgrey" stroke="lightgrey" points="245,-220.74 245,-359.74 349,-359.74 349,-220.74 245,-220.74"/>
</g>
<g id="clust4" class="cluster">
<title>cluster_new</title>
<polygon fill="lightgrey" stroke="lightgrey" points="603,-220.74 603,-461.74 1001,-461.74 1001,-220.74 603,-220.74"/>
</g>
<!-- legalSS spreadsheet onEdit() -->
<g id="node1" class="node">
<title>legalSS spreadsheet onEdit()</title>
<ellipse fill="none" stroke="black" cx="335" cy="-816.48" rx="112.38" ry="18"/>
<text text-anchor="middle" x="335" y="-812.78" font-family="Times,serif" font-size="14.00">legalSS spreadsheet onEdit()</text>
</g>
<!-- Code.gs -->
<g id="node2" class="node">
<title>Code.gs</title>
<ellipse fill="none" stroke="black" cx="335" cy="-729.48" rx="39.79" ry="18"/>
<text text-anchor="middle" x="335" y="-725.78" font-family="Times,serif" font-size="14.00">Code.gs</text>
</g>
<!-- legalSS spreadsheet onEdit()&#45;&gt;Code.gs -->
<g id="edge1" class="edge">
<title>legalSS spreadsheet onEdit()&#45;&gt;Code.gs</title>
<path fill="none" stroke="black" d="M335,-798.28C335,-786.64 335,-771.03 335,-757.72"/>
<polygon fill="black" stroke="black" points="338.5,-757.66 335,-747.66 331.5,-757.66 338.5,-757.66"/>
<text text-anchor="middle" x="364.5" y="-769.28" font-family="Times,serif" font-size="14.00">parse CSV</text>
</g>
<!-- gsheet/pyrest/hello.py -->
<g id="node3" class="node">
<title>gsheet/pyrest/hello.py</title>
<ellipse fill="none" stroke="black" cx="409" cy="-435.74" rx="88.28" ry="18"/>
<text text-anchor="middle" x="409" y="-432.04" font-family="Times,serif" font-size="14.00">gsheet/pyrest/hello.py</text>
</g>
<!-- Code.gs&#45;&gt;gsheet/pyrest/hello.py -->
<g id="edge2" class="edge">
<title>Code.gs&#45;&gt;gsheet/pyrest/hello.py</title>
<path fill="none" stroke="black" d="M331.49,-711.53C324.72,-675.03 312.65,-586.88 338,-519.74 346.75,-496.57 365.06,-475.43 380.89,-460.29"/>
<polygon fill="black" stroke="black" points="383.43,-462.71 388.41,-453.35 378.68,-457.56 383.43,-462.71"/>
<text text-anchor="middle" x="361.5" y="-577.54" font-family="Times,serif" font-size="14.00">ships CSV to</text>
</g>
<!-- main.html\nsidebar -->
<g id="node4" class="node">
<title>main.html\nsidebar</title>
<ellipse fill="none" stroke="black" cx="503" cy="-633.61" rx="52.15" ry="26.74"/>
<text text-anchor="middle" x="503" y="-637.41" font-family="Times,serif" font-size="14.00">main.html</text>
<text text-anchor="middle" x="503" y="-622.41" font-family="Times,serif" font-size="14.00">sidebar</text>
</g>
<!-- Code.gs&#45;&gt;main.html\nsidebar -->
<g id="edge3" class="edge">
<title>Code.gs&#45;&gt;main.html\nsidebar</title>
<path fill="none" stroke="black" d="M359.07,-715.03C385.28,-700.39 427.72,-676.67 459.74,-658.78"/>
<polygon fill="black" stroke="black" points="461.45,-661.83 468.48,-653.9 458.04,-655.72 461.45,-661.83"/>
<text text-anchor="middle" x="486.5" y="-682.28" font-family="Times,serif" font-size="14.00">produce HTML output</text>
</g>
<!-- static files -->
<g id="node6" class="node">
<title>static files</title>
<ellipse fill="lightblue" stroke="lightblue" cx="79" cy="-333.74" rx="46.59" ry="18"/>
<text text-anchor="middle" x="79" y="-330.04" font-family="Times,serif" font-size="14.00">static files</text>
</g>
<!-- gsheet/pyrest/hello.py&#45;&gt;static files -->
<g id="edge6" class="edge">
<title>gsheet/pyrest/hello.py&#45;&gt;static files</title>
<path fill="none" stroke="black" d="M325.46,-429.83C297.94,-424.99 268.41,-416.04 245,-399.74 232.05,-390.72 238.85,-378.91 226,-369.74 199.64,-350.92 164.52,-342.12 135.22,-338.04"/>
<polygon fill="black" stroke="black" points="135.48,-334.54 125.12,-336.79 134.62,-341.49 135.48,-334.54"/>
<text text-anchor="middle" x="262" y="-381.04" font-family="Times,serif" font-size="14.00">serves</text>
</g>
<!-- natural4&#45;exe -->
<g id="node7" class="node">
<title>natural4&#45;exe</title>
<ellipse fill="lightblue" stroke="lightblue" cx="71" cy="-435.74" rx="54.69" ry="18"/>
<text text-anchor="middle" x="71" y="-432.04" font-family="Times,serif" font-size="14.00">natural4&#45;exe</text>
</g>
<!-- gsheet/pyrest/hello.py&#45;&gt;natural4&#45;exe -->
<g id="edge9" class="edge">
<title>gsheet/pyrest/hello.py&#45;&gt;natural4&#45;exe</title>
<path fill="none" stroke="black" d="M384.88,-453.3C364.38,-467.07 333.57,-485.14 303.5,-492.74 234.33,-510.23 153.38,-478.63 107.55,-455.91"/>
<polygon fill="black" stroke="black" points="109.09,-452.77 98.59,-451.36 105.92,-459.01 109.09,-452.77"/>
<text text-anchor="middle" x="291" y="-490.54" font-family="Times,serif" font-size="14.00">1</text>
<text text-anchor="middle" x="291" y="-475.54" font-family="Times,serif" font-size="14.00">calls</text>
</g>
<!-- v8k script -->
<g id="node9" class="node">
<title>v8k script</title>
<ellipse fill="lightgreen" stroke="lightgreen" cx="411" cy="-333.74" rx="46.29" ry="18"/>
<text text-anchor="middle" x="411" y="-330.04" font-family="Times,serif" font-size="14.00">v8k script</text>
</g>
<!-- gsheet/pyrest/hello.py&#45;&gt;v8k script -->
<g id="edge17" class="edge">
<title>gsheet/pyrest/hello.py&#45;&gt;v8k script</title>
<path fill="none" stroke="black" d="M409.35,-417.32C409.65,-402.12 410.1,-379.81 410.45,-362.2"/>
<polygon fill="black" stroke="black" points="413.95,-362.03 410.66,-351.96 406.96,-361.89 413.95,-362.03"/>
<text text-anchor="middle" x="422.5" y="-381.04" font-family="Times,serif" font-size="14.00">calls</text>
</g>
<!-- corel4 -->
<g id="node14" class="node">
<title>corel4</title>
<ellipse fill="hotpink" stroke="hotpink" cx="305" cy="-333.74" rx="32.49" ry="18"/>
<text text-anchor="middle" x="305" y="-330.04" font-family="Times,serif" font-size="14.00">corel4</text>
</g>
<!-- gsheet/pyrest/hello.py&#45;&gt;corel4 -->
<g id="edge21" class="edge">
<title>gsheet/pyrest/hello.py&#45;&gt;corel4</title>
<path fill="none" stroke="black" d="M393.37,-417.75C380.87,-404.38 362.73,-385.44 346,-369.74 341.07,-365.12 335.67,-360.32 330.44,-355.81"/>
<polygon fill="black" stroke="black" points="332.36,-352.84 322.47,-349.03 327.82,-358.18 332.36,-352.84"/>
<text text-anchor="middle" x="387" y="-388.54" font-family="Times,serif" font-size="14.00">3</text>
<text text-anchor="middle" x="387" y="-373.54" font-family="Times,serif" font-size="14.00">runs</text>
</g>
<!-- rules -->
<g id="node16" class="node">
<title>rules</title>
<ellipse fill="pink" stroke="pink" cx="639" cy="-333.74" rx="27.9" ry="18"/>
<text text-anchor="middle" x="639" y="-330.04" font-family="Times,serif" font-size="14.00">rules</text>
</g>
<!-- gsheet/pyrest/hello.py&#45;&gt;rules -->
<g id="edge26" class="edge">
<title>gsheet/pyrest/hello.py&#45;&gt;rules</title>
<path fill="none" stroke="black" d="M453,-419.96C492.15,-406.2 550.56,-384.18 599,-359.74 603.14,-357.65 607.41,-355.26 611.55,-352.81"/>
<polygon fill="black" stroke="black" points="613.61,-355.65 620.29,-347.42 609.94,-349.69 613.61,-355.65"/>
<text text-anchor="middle" x="593.5" y="-388.54" font-family="Times,serif" font-size="14.00">1</text>
<text text-anchor="middle" x="593.5" y="-373.54" font-family="Times,serif" font-size="14.00">convert</text>
</g>
<!-- shadow&#45;cljs watch app -->
<g id="node18" class="node">
<title>shadow&#45;cljs watch app</title>
<ellipse fill="pink" stroke="pink" cx="776" cy="-333.74" rx="90.98" ry="18"/>
<text text-anchor="middle" x="776" y="-330.04" font-family="Times,serif" font-size="14.00">shadow&#45;cljs watch app</text>
</g>
<!-- gsheet/pyrest/hello.py&#45;&gt;shadow&#45;cljs watch app -->
<g id="edge27" class="edge">
<title>gsheet/pyrest/hello.py&#45;&gt;shadow&#45;cljs watch app</title>
<path fill="none" stroke="black" d="M484.39,-426.27C524.54,-420.73 574.49,-412.16 618,-399.74 658.58,-388.15 702.86,-369.37 734.19,-354.96"/>
<polygon fill="black" stroke="black" points="735.88,-358.04 743.48,-350.65 732.93,-351.69 735.88,-358.04"/>
<text text-anchor="middle" x="729.5" y="-388.54" font-family="Times,serif" font-size="14.00">2</text>
<text text-anchor="middle" x="729.5" y="-373.54" font-family="Times,serif" font-size="14.00">(re)launches</text>
</g>
<!-- various export links -->
<g id="node5" class="node">
<title>various export links</title>
<ellipse fill="none" stroke="black" cx="428" cy="-537.74" rx="81.49" ry="18"/>
<text text-anchor="middle" x="428" y="-534.04" font-family="Times,serif" font-size="14.00">various export links</text>
</g>
<!-- main.html\nsidebar&#45;&gt;various export links -->
<g id="edge4" class="edge">
<title>main.html\nsidebar&#45;&gt;various export links</title>
<path fill="none" stroke="black" d="M483.69,-608.44C472.76,-594.76 459.11,-577.68 448.07,-563.86"/>
<polygon fill="black" stroke="black" points="450.55,-561.35 441.57,-555.73 445.08,-565.72 450.55,-561.35"/>
</g>
<!-- vue web app -->
<g id="node8" class="node">
<title>vue web app</title>
<ellipse fill="lightgreen" stroke="lightgreen" cx="531" cy="-333.74" rx="55.79" ry="18"/>
<text text-anchor="middle" x="531" y="-330.04" font-family="Times,serif" font-size="14.00">vue web app</text>
</g>
<!-- main.html\nsidebar&#45;&gt;vue web app -->
<g id="edge18" class="edge">
<title>main.html\nsidebar&#45;&gt;vue web app</title>
<path fill="none" stroke="black" d="M508.94,-606.78C512.13,-591.92 515.83,-572.87 518,-555.74 526.76,-486.43 529.63,-404.14 530.56,-362.23"/>
<polygon fill="black" stroke="black" points="534.07,-362.07 530.77,-352.01 527.07,-361.93 534.07,-362.07"/>
<text text-anchor="middle" x="543" y="-483.04" font-family="Times,serif" font-size="14.00">link to</text>
</g>
<!-- web front&#45;end (clara) -->
<g id="node20" class="node">
<title>web front&#45;end (clara)</title>
<ellipse fill="pink" stroke="pink" cx="810" cy="-435.74" rx="85.59" ry="18"/>
<text text-anchor="middle" x="810" y="-432.04" font-family="Times,serif" font-size="14.00">web front&#45;end (clara)</text>
</g>
<!-- main.html\nsidebar&#45;&gt;web front&#45;end (clara) -->
<g id="edge28" class="edge">
<title>main.html\nsidebar&#45;&gt;web front&#45;end (clara)</title>
<path fill="none" stroke="black" d="M534.99,-612.2C593.12,-575.11 715.64,-496.94 775.55,-458.72"/>
<polygon fill="black" stroke="black" points="777.71,-461.49 784.26,-453.16 773.95,-455.59 777.71,-461.49"/>
<text text-anchor="middle" x="696.5" y="-541.54" font-family="Times,serif" font-size="14.00">3</text>
<text text-anchor="middle" x="696.5" y="-526.54" font-family="Times,serif" font-size="14.00">links to</text>
</g>
<!-- various export links&#45;&gt;gsheet/pyrest/hello.py -->
<g id="edge5" class="edge">
<title>various export links&#45;&gt;gsheet/pyrest/hello.py</title>
<path fill="none" stroke="black" d="M424.69,-519.32C421.8,-504.12 417.56,-481.81 414.22,-464.2"/>
<polygon fill="black" stroke="black" points="417.58,-463.13 412.27,-453.96 410.7,-464.44 417.58,-463.13"/>
</g>
<!-- various export links&#45;&gt;static files -->
<g id="edge7" class="edge">
<title>various export links&#45;&gt;static files</title>
<path fill="none" stroke="black" d="M400.32,-520.72C336.91,-484.02 181.29,-393.94 112.56,-354.16"/>
<polygon fill="black" stroke="black" points="114.25,-351.1 103.84,-349.12 110.74,-357.16 114.25,-351.1"/>
<text text-anchor="middle" x="298.5" y="-432.04" font-family="Times,serif" font-size="14.00">to</text>
</g>
<!-- natural4&#45;exe&#45;&gt;gsheet/pyrest/hello.py -->
<g id="edge10" class="edge">
<title>natural4&#45;exe&#45;&gt;gsheet/pyrest/hello.py</title>
<path fill="none" stroke="black" d="M89.17,-452.89C102.81,-464.52 122.57,-478.9 143,-485.24 219.44,-508.98 311.97,-479.19 365.3,-456.61"/>
<polygon fill="black" stroke="black" points="367.01,-459.68 374.79,-452.49 364.23,-453.26 367.01,-459.68"/>
<text text-anchor="middle" x="208" y="-483.04" font-family="Times,serif" font-size="14.00">returns after succeeding</text>
</g>
<!-- natural4&#45;exe&#45;&gt;static files -->
<g id="edge8" class="edge">
<title>natural4&#45;exe&#45;&gt;static files</title>
<path fill="none" stroke="black" d="M72.39,-417.32C73.61,-402.12 75.39,-379.81 76.8,-362.2"/>
<polygon fill="black" stroke="black" points="80.31,-362.21 77.62,-351.96 73.34,-361.65 80.31,-362.21"/>
<text text-anchor="middle" x="101.5" y="-381.04" font-family="Times,serif" font-size="14.00">produces</text>
</g>
<!-- natural4&#45;exe&#45;&gt;corel4 -->
<g id="edge20" class="edge">
<title>natural4&#45;exe&#45;&gt;corel4</title>
<path fill="none" stroke="black" d="M121.83,-429.11C180.6,-422.18 270.86,-410.05 283,-399.74 294.03,-390.37 299.55,-375.25 302.3,-361.95"/>
<polygon fill="black" stroke="black" points="305.8,-362.25 303.97,-351.82 298.89,-361.12 305.8,-362.25"/>
<text text-anchor="middle" x="320" y="-388.54" font-family="Times,serif" font-size="14.00">2</text>
<text text-anchor="middle" x="320" y="-373.54" font-family="Times,serif" font-size="14.00">outputs</text>
</g>
<!-- vue&#39;s npm run serve -->
<g id="node10" class="node">
<title>vue&#39;s npm run serve</title>
<ellipse fill="lightgreen" stroke="lightgreen" cx="505" cy="-246.74" rx="81.79" ry="18"/>
<text text-anchor="middle" x="505" y="-243.04" font-family="Times,serif" font-size="14.00">vue&#39;s npm run serve</text>
</g>
<!-- vue web app&#45;&gt;vue&#39;s npm run serve -->
<g id="edge11" class="edge">
<title>vue web app&#45;&gt;vue&#39;s npm run serve</title>
<path fill="none" stroke="black" d="M525.74,-315.54C522.14,-303.79 517.31,-287.98 513.21,-274.58"/>
<polygon fill="black" stroke="black" points="516.53,-273.45 510.25,-264.92 509.83,-275.5 516.53,-273.45"/>
<text text-anchor="middle" x="545.5" y="-286.54" font-family="Times,serif" font-size="14.00">served by</text>
</g>
<!-- v8k script&#45;&gt;vue&#39;s npm run serve -->
<g id="edge12" class="edge">
<title>v8k script&#45;&gt;vue&#39;s npm run serve</title>
<path fill="none" stroke="black" d="M427.11,-316.67C437.24,-306.72 450.68,-293.77 463,-282.74 467.44,-278.77 472.23,-274.63 476.93,-270.66"/>
<polygon fill="black" stroke="black" points="479.24,-273.29 484.67,-264.19 474.75,-267.92 479.24,-273.29"/>
<text text-anchor="middle" x="487.5" y="-286.54" font-family="Times,serif" font-size="14.00">manages</text>
</g>
<!-- the latest purescript -->
<g id="node12" class="node">
<title>the latest purescript</title>
<ellipse fill="lightgreen" stroke="lightgreen" cx="445" cy="-192.74" rx="79.89" ry="18"/>
<text text-anchor="middle" x="445" y="-189.04" font-family="Times,serif" font-size="14.00">the latest purescript</text>
</g>
<!-- v8k script&#45;&gt;the latest purescript -->
<g id="edge13" class="edge">
<title>v8k script&#45;&gt;the latest purescript</title>
<path fill="none" stroke="black" d="M407.03,-315.64C402.64,-292.62 398.09,-251.05 414,-220.74 414.51,-219.76 415.08,-218.8 415.69,-217.86"/>
<polygon fill="black" stroke="black" points="418.49,-219.96 422.12,-210.01 413.08,-215.53 418.49,-219.96"/>
<text text-anchor="middle" x="421.5" y="-286.54" font-family="Times,serif" font-size="14.00">copies</text>
</g>
<!-- in dev mode\nwith hot reloading -->
<g id="node11" class="node">
<title>in dev mode\nwith hot reloading</title>
<ellipse fill="lightgreen" stroke="lightgreen" cx="505" cy="-129.87" rx="82.05" ry="26.74"/>
<text text-anchor="middle" x="505" y="-133.67" font-family="Times,serif" font-size="14.00">in dev mode</text>
<text text-anchor="middle" x="505" y="-118.67" font-family="Times,serif" font-size="14.00">with hot reloading</text>
</g>
<!-- vue&#39;s npm run serve&#45;&gt;in dev mode\nwith hot reloading -->
<g id="edge15" class="edge">
<title>vue&#39;s npm run serve&#45;&gt;in dev mode\nwith hot reloading</title>
<path fill="none" stroke="black" stroke-dasharray="1,5" d="M517.67,-228.79C521.06,-223.31 524.26,-217.02 526,-210.74 530.27,-195.32 529.54,-190.34 526,-174.74 525.35,-171.88 524.49,-169 523.49,-166.14"/>
<polygon fill="black" stroke="black" points="526.64,-164.59 519.65,-156.62 520.15,-167.21 526.64,-164.59"/>
</g>
<!-- purs file on disk -->
<g id="node13" class="node">
<title>purs file on disk</title>
<ellipse fill="lightgreen" stroke="lightgreen" cx="469" cy="-34" rx="68.49" ry="18"/>
<text text-anchor="middle" x="469" y="-30.3" font-family="Times,serif" font-size="14.00">purs file on disk</text>
</g>
<!-- in dev mode\nwith hot reloading&#45;&gt;purs file on disk -->
<g id="edge16" class="edge">
<title>in dev mode\nwith hot reloading&#45;&gt;purs file on disk</title>
<path fill="none" stroke="black" d="M495.07,-102.97C490.09,-90 484.08,-74.32 479.08,-61.29"/>
<polygon fill="black" stroke="black" points="482.34,-60.02 475.5,-51.94 475.81,-62.53 482.34,-60.02"/>
<text text-anchor="middle" x="502.5" y="-73.8" font-family="Times,serif" font-size="14.00">reads</text>
</g>
<!-- the latest purescript&#45;&gt;purs file on disk -->
<g id="edge14" class="edge">
<title>the latest purescript&#45;&gt;purs file on disk</title>
<path fill="none" stroke="black" d="M418.62,-175.72C412.34,-170.51 406.46,-164.13 403,-156.74 392.87,-135.11 394.02,-125.13 403,-103 410.24,-85.16 424.65,-69.42 438.16,-57.59"/>
<polygon fill="black" stroke="black" points="440.52,-60.18 445.96,-51.09 436.04,-54.8 440.52,-60.18"/>
<text text-anchor="middle" x="408.5" y="-126.17" font-family="Times,serif" font-size="14.00">to</text>
</g>
<!-- dmn xml -->
<g id="node15" class="node">
<title>dmn xml</title>
<ellipse fill="hotpink" stroke="hotpink" cx="297" cy="-246.74" rx="43.59" ry="18"/>
<text text-anchor="middle" x="297" y="-243.04" font-family="Times,serif" font-size="14.00">dmn xml</text>
</g>
<!-- corel4&#45;&gt;dmn xml -->
<g id="edge19" class="edge">
<title>corel4&#45;&gt;dmn xml</title>
<path fill="none" stroke="black" d="M302.93,-315.66C302.27,-309.97 301.57,-303.58 301,-297.74 300.29,-290.4 299.61,-282.45 299.02,-275.09"/>
<polygon fill="black" stroke="black" points="302.49,-274.58 298.23,-264.88 295.51,-275.12 302.49,-274.58"/>
<text text-anchor="middle" x="327" y="-286.54" font-family="Times,serif" font-size="14.00">generates</text>
</g>
<!-- clara format -->
<g id="node17" class="node">
<title>clara format</title>
<ellipse fill="pink" stroke="pink" cx="776" cy="-246.74" rx="53.89" ry="18"/>
<text text-anchor="middle" x="776" y="-243.04" font-family="Times,serif" font-size="14.00">clara format</text>
</g>
<!-- rules&#45;&gt;clara format -->
<g id="edge22" class="edge">
<title>rules&#45;&gt;clara format</title>
<path fill="none" stroke="black" d="M657.31,-320.08C663.23,-316.07 669.85,-311.66 676,-307.74 697.52,-294.03 722.09,-279.27 741.49,-267.83"/>
<polygon fill="black" stroke="black" points="743.44,-270.74 750.29,-262.66 739.89,-264.71 743.44,-270.74"/>
<text text-anchor="middle" x="719.5" y="-286.54" font-family="Times,serif" font-size="14.00">to</text>
</g>
<!-- shadow&#45;cljs watch app&#45;&gt;clara format -->
<g id="edge23" class="edge">
<title>shadow&#45;cljs watch app&#45;&gt;clara format</title>
<path fill="none" stroke="black" d="M776,-315.54C776,-303.9 776,-288.29 776,-274.98"/>
<polygon fill="black" stroke="black" points="779.5,-274.92 776,-264.92 772.5,-274.92 779.5,-274.92"/>
<text text-anchor="middle" x="800.5" y="-286.54" font-family="Times,serif" font-size="14.00">monitors</text>
</g>
<!-- clara engine -->
<g id="node19" class="node">
<title>clara engine</title>
<ellipse fill="pink" stroke="pink" cx="939" cy="-333.74" rx="53.89" ry="18"/>
<text text-anchor="middle" x="939" y="-330.04" font-family="Times,serif" font-size="14.00">clara engine</text>
</g>
<!-- clara engine&#45;&gt;clara format -->
<g id="edge24" class="edge">
<title>clara engine&#45;&gt;clara format</title>
<path fill="none" stroke="black" d="M910.98,-318.13C883.96,-304.04 842.89,-282.62 813.15,-267.11"/>
<polygon fill="black" stroke="black" points="814.41,-263.82 803.93,-262.3 811.18,-270.03 814.41,-263.82"/>
<text text-anchor="middle" x="881.5" y="-286.54" font-family="Times,serif" font-size="14.00">reads</text>
</g>
<!-- web front&#45;end (clara)&#45;&gt;clara engine -->
<g id="edge25" class="edge">
<title>web front&#45;end (clara)&#45;&gt;clara engine</title>
<path fill="none" stroke="black" d="M831.3,-418.23C852.94,-401.45 886.58,-375.38 910.5,-356.83"/>
<polygon fill="black" stroke="black" points="912.76,-359.51 918.52,-350.62 908.47,-353.98 912.76,-359.51"/>
<text text-anchor="middle" x="919.5" y="-388.54" font-family="Times,serif" font-size="14.00">4</text>
<text text-anchor="middle" x="919.5" y="-373.54" font-family="Times,serif" font-size="14.00">served by</text>
</g>
</g>
</svg>
