<?xml version="1.0" encoding="UTF-8" standalone="no"?>
<!DOCTYPE svg PUBLIC "-//W3C//DTD SVG 1.1//EN"
 "http://www.w3.org/Graphics/SVG/1.1/DTD/svg11.dtd">
<!-- Generated by graphviz version 2.43.0 (0)
 -->
<!-- Title: %3 Pages: 1 -->
<svg width="939pt" height="842pt"
 viewBox="0.00 0.00 939.00 842.48" xmlns="http://www.w3.org/2000/svg" xmlns:xlink="http://www.w3.org/1999/xlink">
<g id="graph0" class="graph" transform="scale(1 1) rotate(0) translate(4 838.48)">
<title>%3</title>
<polygon fill="white" stroke="transparent" points="-4,4 -4,-838.48 935,-838.48 935,4 -4,4"/>
<g id="clust1" class="cluster">
<title>cluster_natural4</title>
<polygon fill="lightgrey" stroke="lightgrey" points="797,-307.74 797,-461.74 923,-461.74 923,-307.74 797,-307.74"/>
</g>
<g id="clust2" class="cluster">
<title>cluster_vue</title>
<polygon fill="lightgrey" stroke="lightgrey" points="439,-8 439,-359.74 677,-359.74 677,-8 439,-8"/>
</g>
<g id="clust3" class="cluster">
<title>cluster_dmn</title>
<polygon fill="lightgrey" stroke="lightgrey" points="685,-220.74 685,-359.74 789,-359.74 789,-220.74 685,-220.74"/>
</g>
<g id="clust4" class="cluster">
<title>cluster_new</title>
<polygon fill="lightgrey" stroke="lightgrey" points="8,-220.74 8,-461.74 406,-461.74 406,-220.74 8,-220.74"/>
</g>
<!-- legalSS spreadsheet onEdit() -->
<g id="node1" class="node">
<title>legalSS spreadsheet onEdit()</title>
<ellipse fill="none" stroke="black" cx="468" cy="-816.48" rx="112.38" ry="18"/>
<text text-anchor="middle" x="468" y="-812.78" font-family="Times,serif" font-size="14.00">legalSS spreadsheet onEdit()</text>
</g>
<!-- Code.gs -->
<g id="node2" class="node">
<title>Code.gs</title>
<ellipse fill="none" stroke="black" cx="468" cy="-729.48" rx="39.79" ry="18"/>
<text text-anchor="middle" x="468" y="-725.78" font-family="Times,serif" font-size="14.00">Code.gs</text>
</g>
<!-- legalSS spreadsheet onEdit()&#45;&gt;Code.gs -->
<g id="edge1" class="edge">
<title>legalSS spreadsheet onEdit()&#45;&gt;Code.gs</title>
<path fill="none" stroke="black" d="M468,-798.28C468,-786.64 468,-771.03 468,-757.72"/>
<polygon fill="black" stroke="black" points="471.5,-757.66 468,-747.66 464.5,-757.66 471.5,-757.66"/>
<text text-anchor="middle" x="497.5" y="-769.28" font-family="Times,serif" font-size="14.00">parse CSV</text>
</g>
<!-- gsheet/pyrest/hello.py -->
<g id="node3" class="node">
<title>gsheet/pyrest/hello.py</title>
<ellipse fill="none" stroke="black" cx="502" cy="-435.74" rx="88.28" ry="18"/>
<text text-anchor="middle" x="502" y="-432.04" font-family="Times,serif" font-size="14.00">gsheet/pyrest/hello.py</text>
</g>
<!-- Code.gs&#45;&gt;gsheet/pyrest/hello.py -->
<g id="edge2" class="edge">
<title>Code.gs&#45;&gt;gsheet/pyrest/hello.py</title>
<path fill="none" stroke="black" d="M465.42,-711.47C460.5,-675.57 451.49,-589.65 466,-519.74 470.12,-499.87 479.25,-478.92 487.29,-463.04"/>
<polygon fill="black" stroke="black" points="490.55,-464.34 492.09,-453.86 484.35,-461.09 490.55,-464.34"/>
<text text-anchor="middle" x="495.5" y="-577.54" font-family="Times,serif" font-size="14.00">ships CSV to</text>
</g>
<!-- main.html\nsidebar -->
<g id="node4" class="node">
<title>main.html\nsidebar</title>
<ellipse fill="none" stroke="black" cx="553" cy="-633.61" rx="52.15" ry="26.74"/>
<text text-anchor="middle" x="553" y="-637.41" font-family="Times,serif" font-size="14.00">main.html</text>
<text text-anchor="middle" x="553" y="-622.41" font-family="Times,serif" font-size="14.00">sidebar</text>
</g>
<!-- Code.gs&#45;&gt;main.html\nsidebar -->
<g id="edge3" class="edge">
<title>Code.gs&#45;&gt;main.html\nsidebar</title>
<path fill="none" stroke="black" d="M482.42,-712.56C493.98,-699.79 510.56,-681.48 524.74,-665.82"/>
<polygon fill="black" stroke="black" points="527.36,-668.14 531.48,-658.38 522.17,-663.44 527.36,-668.14"/>
<text text-anchor="middle" x="575.5" y="-682.28" font-family="Times,serif" font-size="14.00">produce HTML output</text>
</g>
<!-- static files -->
<g id="node6" class="node">
<title>static files</title>
<ellipse fill="lightblue" stroke="lightblue" cx="852" cy="-333.74" rx="46.59" ry="18"/>
<text text-anchor="middle" x="852" y="-330.04" font-family="Times,serif" font-size="14.00">static files</text>
</g>
<!-- gsheet/pyrest/hello.py&#45;&gt;static files -->
<g id="edge6" class="edge">
<title>gsheet/pyrest/hello.py&#45;&gt;static files</title>
<path fill="none" stroke="black" d="M556.46,-421.48C581.4,-415.21 611.29,-407.43 638,-399.74 680.14,-387.6 689.36,-379.98 732,-369.74 758.71,-363.32 766.61,-367.38 793,-359.74 800.13,-357.68 807.54,-354.99 814.62,-352.15"/>
<polygon fill="black" stroke="black" points="816.12,-355.32 823.99,-348.22 813.41,-348.86 816.12,-355.32"/>
<text text-anchor="middle" x="749" y="-381.04" font-family="Times,serif" font-size="14.00">serves</text>
</g>
<!-- natural4&#45;exe -->
<g id="node7" class="node">
<title>natural4&#45;exe</title>
<ellipse fill="lightblue" stroke="lightblue" cx="860" cy="-435.74" rx="54.69" ry="18"/>
<text text-anchor="middle" x="860" y="-432.04" font-family="Times,serif" font-size="14.00">natural4&#45;exe</text>
</g>
<!-- gsheet/pyrest/hello.py&#45;&gt;natural4&#45;exe -->
<g id="edge9" class="edge">
<title>gsheet/pyrest/hello.py&#45;&gt;natural4&#45;exe</title>
<path fill="none" stroke="black" d="M533.93,-452.61C584.29,-476.98 685.03,-516.61 768.5,-492.74 791.64,-486.12 814.62,-471.77 831.76,-459.13"/>
<polygon fill="black" stroke="black" points="834.33,-461.57 840.16,-452.72 830.09,-456 834.33,-461.57"/>
<text text-anchor="middle" x="756" y="-490.54" font-family="Times,serif" font-size="14.00">1</text>
<text text-anchor="middle" x="756" y="-475.54" font-family="Times,serif" font-size="14.00">calls</text>
</g>
<!-- v8k script -->
<g id="node10" class="node">
<title>v8k script</title>
<ellipse fill="lightgreen" stroke="lightgreen" cx="493" cy="-333.74" rx="46.29" ry="18"/>
<text text-anchor="middle" x="493" y="-330.04" font-family="Times,serif" font-size="14.00">v8k script</text>
</g>
<!-- gsheet/pyrest/hello.py&#45;&gt;v8k script -->
<g id="edge18" class="edge">
<title>gsheet/pyrest/hello.py&#45;&gt;v8k script</title>
<path fill="none" stroke="black" d="M500.43,-417.32C499.06,-402.12 497.06,-379.81 495.47,-362.2"/>
<polygon fill="black" stroke="black" points="498.93,-361.61 494.55,-351.96 491.96,-362.23 498.93,-361.61"/>
<text text-anchor="middle" x="510.5" y="-381.04" font-family="Times,serif" font-size="14.00">calls</text>
</g>
<!-- corel4 -->
<g id="node15" class="node">
<title>corel4</title>
<ellipse fill="hotpink" stroke="hotpink" cx="725" cy="-333.74" rx="32.49" ry="18"/>
<text text-anchor="middle" x="725" y="-330.04" font-family="Times,serif" font-size="14.00">corel4</text>
</g>
<!-- gsheet/pyrest/hello.py&#45;&gt;corel4 -->
<g id="edge22" class="edge">
<title>gsheet/pyrest/hello.py&#45;&gt;corel4</title>
<path fill="none" stroke="black" d="M524.77,-418.04C546.55,-402.94 580.9,-381.34 614,-369.74 642.41,-359.78 652.54,-369.57 681,-359.74 686.06,-357.99 691.21,-355.66 696.11,-353.12"/>
<polygon fill="black" stroke="black" points="698.12,-356.01 705.15,-348.08 694.71,-349.89 698.12,-356.01"/>
<text text-anchor="middle" x="626" y="-388.54" font-family="Times,serif" font-size="14.00">3</text>
<text text-anchor="middle" x="626" y="-373.54" font-family="Times,serif" font-size="14.00">runs</text>
</g>
<!-- rules -->
<g id="node16" class="node">
<title>rules</title>
<ellipse fill="pink" stroke="pink" cx="370" cy="-333.74" rx="27.9" ry="18"/>
<text text-anchor="middle" x="370" y="-330.04" font-family="Times,serif" font-size="14.00">rules</text>
</g>
<!-- gsheet/pyrest/hello.py&#45;&gt;rules -->
<g id="edge27" class="edge">
<title>gsheet/pyrest/hello.py&#45;&gt;rules</title>
<path fill="none" stroke="black" d="M477.35,-418.37C468.9,-412.62 459.45,-406.02 451,-399.74 431.52,-385.27 410.15,-368.06 394.25,-354.98"/>
<polygon fill="black" stroke="black" points="396.41,-352.23 386.47,-348.56 391.95,-357.62 396.41,-352.23"/>
<text text-anchor="middle" x="471.5" y="-388.54" font-family="Times,serif" font-size="14.00">1</text>
<text text-anchor="middle" x="471.5" y="-373.54" font-family="Times,serif" font-size="14.00">convert</text>
</g>
<!-- shadow&#45;cljs watch app -->
<g id="node18" class="node">
<title>shadow&#45;cljs watch app</title>
<ellipse fill="pink" stroke="pink" cx="233" cy="-333.74" rx="90.98" ry="18"/>
<text text-anchor="middle" x="233" y="-330.04" font-family="Times,serif" font-size="14.00">shadow&#45;cljs watch app</text>
</g>
<!-- gsheet/pyrest/hello.py&#45;&gt;shadow&#45;cljs watch app -->
<g id="edge28" class="edge">
<title>gsheet/pyrest/hello.py&#45;&gt;shadow&#45;cljs watch app</title>
<path fill="none" stroke="black" d="M438.46,-423.13C401.44,-415.93 358.68,-406.76 341,-399.74 313.41,-388.79 284.74,-371.2 263.88,-357.08"/>
<polygon fill="black" stroke="black" points="265.67,-354.05 255.45,-351.26 261.7,-359.82 265.67,-354.05"/>
<text text-anchor="middle" x="374.5" y="-388.54" font-family="Times,serif" font-size="14.00">2</text>
<text text-anchor="middle" x="374.5" y="-373.54" font-family="Times,serif" font-size="14.00">(re)launches</text>
</g>
<!-- various export links -->
<g id="node5" class="node">
<title>various export links</title>
<ellipse fill="none" stroke="black" cx="676" cy="-537.74" rx="81.49" ry="18"/>
<text text-anchor="middle" x="676" y="-534.04" font-family="Times,serif" font-size="14.00">various export links</text>
</g>
<!-- main.html\nsidebar&#45;&gt;various export links -->
<g id="edge4" class="edge">
<title>main.html\nsidebar&#45;&gt;various export links</title>
<path fill="none" stroke="black" d="M581.53,-610.84C601.03,-595.96 626.8,-576.29 646.5,-561.25"/>
<polygon fill="black" stroke="black" points="648.71,-563.97 654.54,-555.12 644.47,-558.4 648.71,-563.97"/>
</g>
<!-- vue web app -->
<g id="node9" class="node">
<title>vue web app</title>
<ellipse fill="lightgreen" stroke="lightgreen" cx="613" cy="-333.74" rx="55.79" ry="18"/>
<text text-anchor="middle" x="613" y="-330.04" font-family="Times,serif" font-size="14.00">vue web app</text>
</g>
<!-- main.html\nsidebar&#45;&gt;vue web app -->
<g id="edge19" class="edge">
<title>main.html\nsidebar&#45;&gt;vue web app</title>
<path fill="none" stroke="black" d="M552.07,-606.7C551.17,-566.57 551.81,-491.93 568,-471.74 577.06,-460.45 589.85,-472.96 599,-461.74 621.88,-433.7 621.28,-389.81 617.84,-361.67"/>
<polygon fill="black" stroke="black" points="621.3,-361.13 616.42,-351.72 614.37,-362.12 621.3,-361.13"/>
<text text-anchor="middle" x="586" y="-483.04" font-family="Times,serif" font-size="14.00">link to</text>
</g>
<!-- web front&#45;end (clara) -->
<g id="node20" class="node">
<title>web front&#45;end (clara)</title>
<ellipse fill="pink" stroke="pink" cx="206" cy="-435.74" rx="85.59" ry="18"/>
<text text-anchor="middle" x="206" y="-432.04" font-family="Times,serif" font-size="14.00">web front&#45;end (clara)</text>
</g>
<!-- main.html\nsidebar&#45;&gt;web front&#45;end (clara) -->
<g id="edge29" class="edge">
<title>main.html\nsidebar&#45;&gt;web front&#45;end (clara)</title>
<path fill="none" stroke="black" d="M545.88,-606.92C541.65,-595.56 535.26,-582.77 526,-573.74 456.05,-505.55 346.85,-468.85 275.86,-451.06"/>
<polygon fill="black" stroke="black" points="276.65,-447.65 266.1,-448.68 274.99,-454.45 276.65,-447.65"/>
<text text-anchor="middle" x="522.5" y="-541.54" font-family="Times,serif" font-size="14.00">3</text>
<text text-anchor="middle" x="522.5" y="-526.54" font-family="Times,serif" font-size="14.00">links to</text>
</g>
<!-- various export links&#45;&gt;gsheet/pyrest/hello.py -->
<g id="edge5" class="edge">
<title>various export links&#45;&gt;gsheet/pyrest/hello.py</title>
<path fill="none" stroke="black" d="M607.27,-528.12C585.87,-522.99 563.15,-514.8 545,-501.74 531.48,-492.01 521.02,-476.61 513.8,-463.23"/>
<polygon fill="black" stroke="black" points="516.75,-461.32 509.12,-453.97 510.5,-464.47 516.75,-461.32"/>
</g>
<!-- various export links&#45;&gt;static files -->
<g id="edge7" class="edge">
<title>various export links&#45;&gt;static files</title>
<path fill="none" stroke="black" d="M735.05,-525.22C748.23,-520.05 760.96,-512.57 770,-501.74 794.3,-472.63 769.26,-452.24 785,-417.74 795.21,-395.36 812.86,-373.85 827.49,-358.35"/>
<polygon fill="black" stroke="black" points="830.35,-360.42 834.8,-350.81 825.33,-355.55 830.35,-360.42"/>
<text text-anchor="middle" x="790.5" y="-432.04" font-family="Times,serif" font-size="14.00">to</text>
</g>
<!-- dmn xml -->
<g id="node8" class="node">
<title>dmn xml</title>
<ellipse fill="none" stroke="black" cx="737" cy="-246.74" rx="43.59" ry="18"/>
<text text-anchor="middle" x="737" y="-243.04" font-family="Times,serif" font-size="14.00">dmn xml</text>
</g>
<!-- static files&#45;&gt;dmn xml -->
<g id="edge11" class="edge">
<title>static files&#45;&gt;dmn xml</title>
<path fill="none" stroke="black" d="M832.26,-317.19C819.47,-307.2 802.38,-294.03 787,-282.74 780.51,-277.98 773.48,-272.96 766.78,-268.26"/>
<polygon fill="black" stroke="black" points="768.76,-265.38 758.56,-262.52 764.76,-271.11 768.76,-265.38"/>
<text text-anchor="middle" x="829" y="-286.54" font-family="Times,serif" font-size="14.00">includes</text>
</g>
<!-- natural4&#45;exe&#45;&gt;gsheet/pyrest/hello.py -->
<g id="edge10" class="edge">
<title>natural4&#45;exe&#45;&gt;gsheet/pyrest/hello.py</title>
<path fill="none" stroke="black" d="M830.91,-451.28C806.79,-463.23 771.2,-478.76 738,-485.24 681.29,-496.31 664.4,-497.76 608,-485.24 583.87,-479.88 558.72,-468.43 538.98,-457.89"/>
<polygon fill="black" stroke="black" points="540.48,-454.72 530.03,-452.98 537.11,-460.86 540.48,-454.72"/>
<text text-anchor="middle" x="673" y="-483.04" font-family="Times,serif" font-size="14.00">returns after succeeding</text>
</g>
<!-- natural4&#45;exe&#45;&gt;static files -->
<g id="edge8" class="edge">
<title>natural4&#45;exe&#45;&gt;static files</title>
<path fill="none" stroke="black" d="M858.61,-417.32C857.39,-402.12 855.61,-379.81 854.2,-362.2"/>
<polygon fill="black" stroke="black" points="857.66,-361.65 853.38,-351.96 850.69,-362.21 857.66,-361.65"/>
<text text-anchor="middle" x="881.5" y="-381.04" font-family="Times,serif" font-size="14.00">produces</text>
</g>
<!-- natural4&#45;exe&#45;&gt;corel4 -->
<g id="edge21" class="edge">
<title>natural4&#45;exe&#45;&gt;corel4</title>
<path fill="none" stroke="black" d="M837.46,-419.26C828.81,-413.24 818.89,-406.25 810,-399.74 790.08,-385.17 767.95,-368.21 751.26,-355.28"/>
<polygon fill="black" stroke="black" points="753.12,-352.28 743.07,-348.91 748.82,-357.81 753.12,-352.28"/>
<text text-anchor="middle" x="830" y="-388.54" font-family="Times,serif" font-size="14.00">2</text>
<text text-anchor="middle" x="830" y="-373.54" font-family="Times,serif" font-size="14.00">outputs</text>
</g>
<!-- vue&#39;s npm run serve -->
<g id="node11" class="node">
<title>vue&#39;s npm run serve</title>
<ellipse fill="lightgreen" stroke="lightgreen" cx="587" cy="-246.74" rx="81.79" ry="18"/>
<text text-anchor="middle" x="587" y="-243.04" font-family="Times,serif" font-size="14.00">vue&#39;s npm run serve</text>
</g>
<!-- vue web app&#45;&gt;vue&#39;s npm run serve -->
<g id="edge12" class="edge">
<title>vue web app&#45;&gt;vue&#39;s npm run serve</title>
<path fill="none" stroke="black" d="M607.74,-315.54C604.14,-303.79 599.31,-287.98 595.21,-274.58"/>
<polygon fill="black" stroke="black" points="598.53,-273.45 592.25,-264.92 591.83,-275.5 598.53,-273.45"/>
<text text-anchor="middle" x="627.5" y="-286.54" font-family="Times,serif" font-size="14.00">served by</text>
</g>
<!-- v8k script&#45;&gt;vue&#39;s npm run serve -->
<g id="edge13" class="edge">
<title>v8k script&#45;&gt;vue&#39;s npm run serve</title>
<path fill="none" stroke="black" d="M509.11,-316.67C519.24,-306.72 532.68,-293.77 545,-282.74 549.44,-278.77 554.23,-274.63 558.93,-270.66"/>
<polygon fill="black" stroke="black" points="561.24,-273.29 566.67,-264.19 556.75,-267.92 561.24,-273.29"/>
<text text-anchor="middle" x="569.5" y="-286.54" font-family="Times,serif" font-size="14.00">manages</text>
</g>
<!-- the latest purescript -->
<g id="node13" class="node">
<title>the latest purescript</title>
<ellipse fill="lightgreen" stroke="lightgreen" cx="527" cy="-192.74" rx="79.89" ry="18"/>
<text text-anchor="middle" x="527" y="-189.04" font-family="Times,serif" font-size="14.00">the latest purescript</text>
</g>
<!-- v8k script&#45;&gt;the latest purescript -->
<g id="edge14" class="edge">
<title>v8k script&#45;&gt;the latest purescript</title>
<path fill="none" stroke="black" d="M489.03,-315.64C484.64,-292.62 480.09,-251.05 496,-220.74 496.51,-219.76 497.08,-218.8 497.69,-217.86"/>
<polygon fill="black" stroke="black" points="500.49,-219.96 504.12,-210.01 495.08,-215.53 500.49,-219.96"/>
<text text-anchor="middle" x="503.5" y="-286.54" font-family="Times,serif" font-size="14.00">copies</text>
</g>
<!-- in dev mode\nwith hot reloading -->
<g id="node12" class="node">
<title>in dev mode\nwith hot reloading</title>
<ellipse fill="lightgreen" stroke="lightgreen" cx="587" cy="-129.87" rx="82.05" ry="26.74"/>
<text text-anchor="middle" x="587" y="-133.67" font-family="Times,serif" font-size="14.00">in dev mode</text>
<text text-anchor="middle" x="587" y="-118.67" font-family="Times,serif" font-size="14.00">with hot reloading</text>
</g>
<!-- vue&#39;s npm run serve&#45;&gt;in dev mode\nwith hot reloading -->
<g id="edge16" class="edge">
<title>vue&#39;s npm run serve&#45;&gt;in dev mode\nwith hot reloading</title>
<path fill="none" stroke="black" stroke-dasharray="1,5" d="M599.67,-228.79C603.06,-223.31 606.26,-217.02 608,-210.74 612.27,-195.32 611.54,-190.34 608,-174.74 607.35,-171.88 606.49,-169 605.49,-166.14"/>
<polygon fill="black" stroke="black" points="608.64,-164.59 601.65,-156.62 602.15,-167.21 608.64,-164.59"/>
</g>
<!-- purs file on disk -->
<g id="node14" class="node">
<title>purs file on disk</title>
<ellipse fill="lightgreen" stroke="lightgreen" cx="551" cy="-34" rx="68.49" ry="18"/>
<text text-anchor="middle" x="551" y="-30.3" font-family="Times,serif" font-size="14.00">purs file on disk</text>
</g>
<!-- in dev mode\nwith hot reloading&#45;&gt;purs file on disk -->
<g id="edge17" class="edge">
<title>in dev mode\nwith hot reloading&#45;&gt;purs file on disk</title>
<path fill="none" stroke="black" d="M577.07,-102.97C572.09,-90 566.08,-74.32 561.08,-61.29"/>
<polygon fill="black" stroke="black" points="564.34,-60.02 557.5,-51.94 557.81,-62.53 564.34,-60.02"/>
<text text-anchor="middle" x="584.5" y="-73.8" font-family="Times,serif" font-size="14.00">reads</text>
</g>
<!-- the latest purescript&#45;&gt;purs file on disk -->
<g id="edge15" class="edge">
<title>the latest purescript&#45;&gt;purs file on disk</title>
<path fill="none" stroke="black" d="M500.62,-175.72C494.34,-170.51 488.46,-164.13 485,-156.74 474.87,-135.11 476.02,-125.13 485,-103 492.24,-85.16 506.65,-69.42 520.16,-57.59"/>
<polygon fill="black" stroke="black" points="522.52,-60.18 527.96,-51.09 518.04,-54.8 522.52,-60.18"/>
<text text-anchor="middle" x="490.5" y="-126.17" font-family="Times,serif" font-size="14.00">to</text>
</g>
<!-- corel4&#45;&gt;dmn xml -->
<g id="edge20" class="edge">
<title>corel4&#45;&gt;dmn xml</title>
<path fill="none" stroke="black" d="M727.43,-315.54C729.07,-303.9 731.28,-288.29 733.15,-274.98"/>
<polygon fill="black" stroke="black" points="736.64,-275.31 734.58,-264.92 729.71,-274.33 736.64,-275.31"/>
<text text-anchor="middle" x="757" y="-286.54" font-family="Times,serif" font-size="14.00">generates</text>
</g>
<!-- clara format -->
<g id="node17" class="node">
<title>clara format</title>
<ellipse fill="pink" stroke="pink" cx="233" cy="-246.74" rx="53.89" ry="18"/>
<text text-anchor="middle" x="233" y="-243.04" font-family="Times,serif" font-size="14.00">clara format</text>
</g>
<!-- rules&#45;&gt;clara format -->
<g id="edge23" class="edge">
<title>rules&#45;&gt;clara format</title>
<path fill="none" stroke="black" d="M351.69,-320.08C345.77,-316.07 339.15,-311.66 333,-307.74 311.48,-294.03 286.91,-279.27 267.51,-267.83"/>
<polygon fill="black" stroke="black" points="269.11,-264.71 258.71,-262.66 265.56,-270.74 269.11,-264.71"/>
<text text-anchor="middle" x="321.5" y="-286.54" font-family="Times,serif" font-size="14.00">to</text>
</g>
<!-- shadow&#45;cljs watch app&#45;&gt;clara format -->
<g id="edge24" class="edge">
<title>shadow&#45;cljs watch app&#45;&gt;clara format</title>
<path fill="none" stroke="black" d="M233,-315.54C233,-303.9 233,-288.29 233,-274.98"/>
<polygon fill="black" stroke="black" points="236.5,-274.92 233,-264.92 229.5,-274.92 236.5,-274.92"/>
<text text-anchor="middle" x="257.5" y="-286.54" font-family="Times,serif" font-size="14.00">monitors</text>
</g>
<!-- clara engine -->
<g id="node19" class="node">
<title>clara engine</title>
<ellipse fill="pink" stroke="pink" cx="70" cy="-333.74" rx="53.89" ry="18"/>
<text text-anchor="middle" x="70" y="-330.04" font-family="Times,serif" font-size="14.00">clara engine</text>
</g>
<!-- clara engine&#45;&gt;clara format -->
<g id="edge25" class="edge">
<title>clara engine&#45;&gt;clara format</title>
<path fill="none" stroke="black" d="M98.02,-318.13C125.04,-304.04 166.11,-282.62 195.85,-267.11"/>
<polygon fill="black" stroke="black" points="197.82,-270.03 205.07,-262.3 194.59,-263.82 197.82,-270.03"/>
<text text-anchor="middle" x="176.5" y="-286.54" font-family="Times,serif" font-size="14.00">reads</text>
</g>
<!-- web front&#45;end (clara)&#45;&gt;clara engine -->
<g id="edge26" class="edge">
<title>web front&#45;end (clara)&#45;&gt;clara engine</title>
<path fill="none" stroke="black" d="M183.54,-418.23C160.63,-401.38 124.96,-375.15 99.72,-356.59"/>
<polygon fill="black" stroke="black" points="101.72,-353.72 91.59,-350.62 97.58,-359.36 101.72,-353.72"/>
<text text-anchor="middle" x="185.5" y="-388.54" font-family="Times,serif" font-size="14.00">4</text>
<text text-anchor="middle" x="185.5" y="-373.54" font-family="Times,serif" font-size="14.00">served by</text>
</g>
</g>
</svg>
