<?xml version="1.0" encoding="UTF-8"?>
<!DOCTYPE svg PUBLIC "-//W3C//DTD SVG 1.1//EN"
    "http://www.w3.org/Graphics/SVG/1.1/DTD/svg11.dtd"><svg xmlns="http://www.w3.org/2000/svg" width="471" xmlns:xlink="http://www.w3.org/1999/xlink" height="121" version="1.11.1"><rect fill="darkgrey" stroke="none" x="0" class="textbox" width="150" y="0" transform="translate(22 0)translate(23 23)" height="44"/><text fill="white" dominant-baseline="central" x="75" y="22" transform="translate(22 0)translate(23 23)" text-anchor="middle">walks</text><rect fill="darkgrey" stroke="none" x="0" class="textbox" width="156" y="0" transform="translate(0 0)translate(0 10)translate(22 -10)translate(160 0)translate(22 0)translate(23 23)" height="44"/><text fill="white" dominant-baseline="central" x="78" y="22" transform="translate(0 0)translate(0 10)translate(22 -10)translate(160 0)translate(22 0)translate(23 23)" text-anchor="middle">drinks</text><path fill="none" stroke="darkgrey" class="v_connector_in" d="M -22,32 C 0,32 -22,32 0 32" transform="translate(22 -10)translate(160 0)translate(22 0)translate(23 23)"/><path fill="none" stroke="darkgrey" class="v_connector_out" d="M 178,32 C 156,32 178,32 156 32" transform="translate(22 -10)translate(160 0)translate(22 0)translate(23 23)"/><rect fill="darkgrey" stroke="none" x="0" class="textbox" width="144" y="0" transform="translate(6 0)translate(0 64)translate(22 -10)translate(160 0)translate(22 0)translate(23 23)" height="44"/><text fill="white" dominant-baseline="central" x="72" y="22" transform="translate(6 0)translate(0 64)translate(22 -10)translate(160 0)translate(22 0)translate(23 23)" text-anchor="middle">eats</text><path fill="none" stroke="darkgrey" class="v_connector_in" d="M -22,32 C 0,32 -22,86 6 86" transform="translate(22 -10)translate(160 0)translate(22 0)translate(23 23)"/><path fill="none" stroke="darkgrey" class="v_connector_out" d="M 178,32 C 156,32 178,86 150 86" transform="translate(22 -10)translate(160 0)translate(22 0)translate(23 23)"/><path fill="none" stroke="darkgrey" class="h_connector" d="M 150,22 c 5,0 5,0 10 0" transform="translate(22 0)translate(23 23)"/></svg>