<?xml version="1.0" encoding="UTF-8"?>
<!DOCTYPE svg PUBLIC "-//W3C//DTD SVG 1.1//EN"
    "http://www.w3.org/Graphics/SVG/1.1/DTD/svg11.dtd"><svg xmlns="http://www.w3.org/2000/svg" width="80" xmlns:xlink="http://www.w3.org/1999/xlink" height="44" version="1.11.1"><rect fill="darkgrey" stroke="none" x="0" class="textbox" width="8" y="0" transform="translate(6 0)translate(23 23)" height="8"/><circle fill="lightgrey" cy="4" cx="4" r="2" transform="translate(6 0)translate(23 23)"/><rect fill="darkgrey" stroke="none" x="0" class="textbox" width="8" y="0" transform="translate(0 0)translate(0 5)translate(6 -5)translate(13 0)translate(6 0)translate(23 23)" height="8"/><circle fill="lightgrey" cy="4" cx="4" r="2" transform="translate(0 0)translate(0 5)translate(6 -5)translate(13 0)translate(6 0)translate(23 23)"/><path fill="none" stroke="darkgrey" class="v_connector_in" d="M -6,15 C 0,15 -6,9 0 9" transform="translate(6 -5)translate(13 0)translate(6 0)translate(23 23)"/><path fill="none" stroke="darkgrey" class="v_connector_out" d="M 14,15 C 8,15 14,9 8 9" transform="translate(6 -5)translate(13 0)translate(6 0)translate(23 23)"/><rect fill="darkgrey" stroke="none" x="0" class="textbox" width="8" y="0" transform="translate(0 0)translate(0 18)translate(6 -5)translate(13 0)translate(6 0)translate(23 23)" height="8"/><circle fill="lightgrey" cy="4" cx="4" r="2" transform="translate(0 0)translate(0 18)translate(6 -5)translate(13 0)translate(6 0)translate(23 23)"/><path fill="none" stroke="darkgrey" class="v_connector_in" d="M -6,15 C 0,15 -6,22 0 22" transform="translate(6 -5)translate(13 0)translate(6 0)translate(23 23)"/><path fill="none" stroke="darkgrey" class="v_connector_out" d="M 14,15 C 8,15 14,22 8 22" transform="translate(6 -5)translate(13 0)translate(6 0)translate(23 23)"/><path fill="none" stroke="darkgrey" class="h_connector" d="M 8,4 c 2,0 2,6 5 6" transform="translate(6 0)translate(23 23)"/></svg>